M48
;Layer_Color=9474304
;FILE_FORMAT=2:5
INCH,TZ
;TYPE=PLATED
T01F00S00C0.01181
T02F00S00C0.03543
T03F00S00C0.04291
T04F00S00C0.12835
;TYPE=NON_PLATED
T05F00S00C0.03937
%
T01
X164961Y47244
X246063Y35039
X322835Y50394
X470866Y33071
X470831Y25232
Y16570
X472047Y54724
X469291
X471654Y87008
Y91339
Y107087
Y110236
Y141732
Y150000
Y157874
X472047Y179134
X469291
X399213Y178347
X387795Y177953
X385433Y207480
X399213Y205118
X403543Y201575
X370472Y206299
X323228Y208661
X317235Y203878
Y196004
X314961Y177165
X310236Y180709
X323228Y174803
X333525Y179809
X288458Y177838
X288495Y189256
Y200673
X288101Y109728
Y98311
Y87681
Y76263
Y64846
X288064Y53429
X314567Y52756
X316841Y71595
Y79469
X315354Y87008
X322441Y84252
X333081Y88917
X317309Y105333
X317924Y113721
X369291Y114961
Y117717
X374410Y89370
X370866Y84646
Y81890
X385039Y83071
X398819Y80315
X397638Y88189
X379134Y94095
X378740Y60236
X373228Y56693
X387402Y53150
X398819Y53937
X333131Y55400
X272047Y53543
X272441Y64567
X272047Y76378
X272441Y87795
Y98032
Y109843
X261024Y92126
X256299Y96850
X248031
X242126Y98819
Y89370
X216142Y94488
X209055Y96850
X201575
X213386Y103150
X188976Y108268
Y118898
X207480Y77953
Y74410
Y70866
Y66929
Y62992
Y59449
X239370Y55905
X245669Y59449
X246457Y159843
X246063Y183858
X240551Y180315
X272441Y177953
Y188976
X272047Y200787
X207874Y202362
Y198819
Y195276
Y191339
Y187402
Y183858
X165354Y171260
X36933Y133389
X31496Y103937
X28346Y98819
X4724Y91732
X-2756Y114567
X-7874Y111417
X-14567Y118898
X-197Y125984
X-27953Y129134
X-29134Y142126
X-40157Y141732
Y132283
X-40233Y117247
X-35827Y118504
X-40157Y151181
Y157480
Y163779
Y170079
Y176378
Y182677
X-40551Y200394
X-36220Y201181
Y207087
X-40945Y207874
Y214173
X-36220Y213779
X-35827Y228346
X-36220Y233535
X-40945Y233071
Y239370
X-36220Y239835
Y246063
X-40945Y245669
Y251969
X-36220Y252362
Y257874
X-40551Y258268
Y264567
Y270866
Y279134
X-31496Y274016
X-31478Y267735
Y261436
X-41339Y226772
X-25591Y261417
X-25197Y267717
X-25197Y274016
X31496Y307087
X57087
X82677
X68110Y330315
X43307Y329134
X17323Y328740
X163386Y298425
X210630Y311024
Y314567
Y318504
Y322441
Y325984
Y329528
X210630Y348031
X214173Y350787
X218504Y346063
X203937Y348031
X190088Y359467
X244094Y350394
X250000Y348031
X258268
X274285Y349564
X274322Y339019
X274285Y327660
Y315909
X274410Y304724
X247244Y311024
X241339Y307087
X248819Y286614
X244094Y340551
X274285Y360892
X272441Y233858
Y222835
Y212205
X261417Y216929
X256299Y220866
X248425
X242520Y223622
Y213386
X216535Y218504
X209055Y221260
X202362
X213386Y226772
X188976Y232283
Y242913
X288495Y234137
Y222720
Y212090
X310236Y215748
X315748Y211024
X333475Y213327
X317702Y229743
X318318Y238130
X369291Y239370
Y242126
X384252Y240551
X398031Y238189
X402362Y234646
Y216142
X398425Y212205
X387795Y211811
X374410Y214173
X378740Y218504
X370472Y209055
X375197Y307480
X380315Y312992
X389764Y305118
X400787Y305512
Y331890
X399606Y338976
X389370Y338583
X387008Y334252
X372047Y332677
Y335827
X375197Y340945
X380315Y345669
X399606Y364961
X319277Y356672
X317323Y337008
X318810Y330807
Y322933
X324803Y335827
X335050Y340256
X335100Y306738
X324410Y301969
X316535Y303150
X290033Y304767
X290070Y316185
Y327602
Y339019
Y349649
Y361067
X473228Y362992
Y359055
X473622Y342913
Y339370
X474016Y305906
X471260
X473622Y284252
Y276378
Y268504
X472047Y235433
Y231890
Y215354
Y211417
X385433Y367323
X370866Y366142
Y368898
X319892Y365059
X190945Y369685
T02
X479134Y44567
Y54567
Y64567
Y74567
Y84567
Y94567
Y104567
Y114567
X479528Y168976
Y178976
Y188976
Y198976
Y208976
Y218976
Y228976
Y238976
X481102Y295905
Y305906
Y315905
Y325905
Y335906
Y345905
Y355906
Y365905
T03
X512520Y48661
Y59567
Y70473
Y81378
Y92283
X523701Y86831
Y75925
Y65020
Y54114
Y180492
Y191398
Y202303
X512520Y207756
Y196850
Y185945
Y175039
Y218661
X523701Y213209
Y306870
Y317776
Y328681
Y339587
X512520Y345039
Y334134
Y323228
Y312323
Y301417
T04
X518110Y21280
Y119665
Y147658
Y246043
Y274035
Y372421
T05
X-34646Y138583
Y222835
M30
