G04*
G04 #@! TF.GenerationSoftware,Altium Limited,Altium Designer,24.1.2 (44)*
G04*
G04 Layer_Color=8421504*
%FSLAX25Y25*%
%MOIN*%
G70*
G04*
G04 #@! TF.SameCoordinates,14951EC0-C73C-489D-96CC-790BF994438B*
G04*
G04*
G04 #@! TF.FilePolarity,Positive*
G04*
G01*
G75*
%ADD17R,0.03740X0.03347*%
%ADD18R,0.03543X0.02756*%
%ADD19R,0.02756X0.03543*%
%ADD20R,0.05807X0.01772*%
%ADD21R,0.03347X0.03740*%
%ADD22R,0.06004X0.02559*%
%ADD23R,0.04921X0.02362*%
%ADD24R,0.04724X0.06496*%
%ADD25R,0.03150X0.03150*%
%ADD26R,0.12362X0.06614*%
G04:AMPARAMS|DCode=27|XSize=23.62mil|YSize=57.09mil|CornerRadius=2.01mil|HoleSize=0mil|Usage=FLASHONLY|Rotation=180.000|XOffset=0mil|YOffset=0mil|HoleType=Round|Shape=RoundedRectangle|*
%AMROUNDEDRECTD27*
21,1,0.02362,0.05307,0,0,180.0*
21,1,0.01961,0.05709,0,0,180.0*
1,1,0.00402,-0.00980,0.02653*
1,1,0.00402,0.00980,0.02653*
1,1,0.00402,0.00980,-0.02653*
1,1,0.00402,-0.00980,-0.02653*
%
%ADD27ROUNDEDRECTD27*%
%ADD28R,0.03200X0.04000*%
%ADD29R,0.11024X0.02165*%
G36*
X16798Y133858D02*
Y131858D01*
X13798D01*
X15798Y133858D01*
X13798Y135858D01*
X16798D01*
Y133858D01*
D02*
G37*
G36*
X14798D02*
X12798Y131858D01*
X11798D01*
Y135858D01*
X12798D01*
X14798Y133858D01*
D02*
G37*
D17*
X387412Y109587D02*
D03*
Y104469D02*
D03*
X255906Y87047D02*
D03*
Y92165D02*
D03*
X248031Y87047D02*
D03*
Y92165D02*
D03*
X387402Y92323D02*
D03*
Y97441D02*
D03*
X387008Y71457D02*
D03*
Y76575D02*
D03*
X407087Y65394D02*
D03*
Y70512D02*
D03*
X387412Y58012D02*
D03*
Y63130D02*
D03*
X315354Y91535D02*
D03*
Y96653D02*
D03*
X314567Y57677D02*
D03*
Y62795D02*
D03*
X407087Y97677D02*
D03*
Y102795D02*
D03*
X201575Y87047D02*
D03*
Y92165D02*
D03*
X208661Y87047D02*
D03*
Y92165D02*
D03*
X256299Y211457D02*
D03*
Y216575D02*
D03*
X248425Y211457D02*
D03*
Y216575D02*
D03*
X209055Y211457D02*
D03*
Y216575D02*
D03*
X201969Y211457D02*
D03*
Y216575D02*
D03*
X314961Y182087D02*
D03*
Y187205D02*
D03*
X315748Y215945D02*
D03*
Y221063D02*
D03*
X387806Y182421D02*
D03*
Y187539D02*
D03*
X407480Y189803D02*
D03*
Y194921D02*
D03*
X387795Y216339D02*
D03*
Y221457D02*
D03*
Y195866D02*
D03*
Y200984D02*
D03*
X407480Y222087D02*
D03*
Y227205D02*
D03*
X387806Y228878D02*
D03*
Y233996D02*
D03*
X203543Y338386D02*
D03*
Y343504D02*
D03*
X210630Y338386D02*
D03*
Y343504D02*
D03*
X250000Y338386D02*
D03*
Y343504D02*
D03*
X257874Y338386D02*
D03*
Y343504D02*
D03*
X-20866Y118701D02*
D03*
Y113583D02*
D03*
X10236Y96653D02*
D03*
Y91535D02*
D03*
X22835Y96653D02*
D03*
Y91535D02*
D03*
X16535Y96653D02*
D03*
Y91535D02*
D03*
X389381Y314469D02*
D03*
Y309350D02*
D03*
X316546Y312894D02*
D03*
Y307776D02*
D03*
X409055Y354134D02*
D03*
Y349016D02*
D03*
Y321850D02*
D03*
Y316732D02*
D03*
X388976Y348228D02*
D03*
Y343110D02*
D03*
X389370Y327756D02*
D03*
Y322638D02*
D03*
X389381Y360925D02*
D03*
Y355807D02*
D03*
X317333Y347146D02*
D03*
Y342028D02*
D03*
X-29528Y113583D02*
D03*
Y118701D02*
D03*
D18*
X5512Y131496D02*
D03*
Y125984D02*
D03*
X397638Y97087D02*
D03*
Y91575D02*
D03*
X398829Y76910D02*
D03*
Y71398D02*
D03*
Y63327D02*
D03*
Y57815D02*
D03*
X397638Y110079D02*
D03*
Y104567D02*
D03*
X399223Y187736D02*
D03*
Y182224D02*
D03*
Y201319D02*
D03*
Y195807D02*
D03*
X398031Y221496D02*
D03*
Y215984D02*
D03*
Y234488D02*
D03*
Y228976D02*
D03*
X400798Y314665D02*
D03*
Y309154D02*
D03*
X399606Y342913D02*
D03*
Y348425D02*
D03*
X400798Y322736D02*
D03*
Y328248D02*
D03*
X399606Y355906D02*
D03*
Y361417D02*
D03*
D19*
X381102Y82913D02*
D03*
X375590D02*
D03*
X281765Y109553D02*
D03*
X276253D02*
D03*
X281765Y98225D02*
D03*
X276253D02*
D03*
X281802Y87681D02*
D03*
X276290D02*
D03*
X281765Y76321D02*
D03*
X276253D02*
D03*
X281765Y64570D02*
D03*
X276253D02*
D03*
X281765Y53429D02*
D03*
X276253D02*
D03*
X232885Y98858D02*
D03*
X238396D02*
D03*
X232885Y89410D02*
D03*
X238396D02*
D03*
X379921Y115984D02*
D03*
X374410D02*
D03*
X221861Y99252D02*
D03*
X216349D02*
D03*
X221861Y89410D02*
D03*
X216349D02*
D03*
X282159Y200730D02*
D03*
X276647D02*
D03*
X282196Y212090D02*
D03*
X276684D02*
D03*
X282159Y233963D02*
D03*
X276647D02*
D03*
X282159Y222635D02*
D03*
X276647D02*
D03*
X282159Y177838D02*
D03*
X276647D02*
D03*
X282159Y188979D02*
D03*
X276647D02*
D03*
X375984Y207323D02*
D03*
X381496D02*
D03*
X233278Y213819D02*
D03*
X238790D02*
D03*
X233278Y223268D02*
D03*
X238790D02*
D03*
X374803Y240394D02*
D03*
X380315D02*
D03*
X223829Y340748D02*
D03*
X218318D02*
D03*
X223829Y350591D02*
D03*
X218318D02*
D03*
X234853Y340748D02*
D03*
X240365D02*
D03*
X234853Y350197D02*
D03*
X240365D02*
D03*
X383071Y334252D02*
D03*
X377559D02*
D03*
X376378Y367323D02*
D03*
X381890D02*
D03*
X283733Y360892D02*
D03*
X278222D02*
D03*
X216743Y223661D02*
D03*
X222255D02*
D03*
X216743Y213819D02*
D03*
X222255D02*
D03*
X278259Y339019D02*
D03*
X283770D02*
D03*
X278222Y327660D02*
D03*
X283733D02*
D03*
X278222Y315909D02*
D03*
X283733D02*
D03*
X278222Y304767D02*
D03*
X283733D02*
D03*
X278222Y349564D02*
D03*
X283733D02*
D03*
D20*
X216003Y83110D02*
D03*
Y80551D02*
D03*
Y77992D02*
D03*
Y75433D02*
D03*
Y72874D02*
D03*
Y70315D02*
D03*
Y67756D02*
D03*
Y65197D02*
D03*
Y62638D02*
D03*
Y60079D02*
D03*
X239137D02*
D03*
Y62638D02*
D03*
Y65197D02*
D03*
Y67756D02*
D03*
Y70315D02*
D03*
Y72874D02*
D03*
Y75433D02*
D03*
Y77992D02*
D03*
Y80551D02*
D03*
Y83110D02*
D03*
X216396Y207520D02*
D03*
Y204961D02*
D03*
Y202402D02*
D03*
Y199843D02*
D03*
Y197283D02*
D03*
Y194724D02*
D03*
Y192165D02*
D03*
Y189606D02*
D03*
Y187047D02*
D03*
Y184488D02*
D03*
X239530D02*
D03*
Y187047D02*
D03*
Y189606D02*
D03*
Y192165D02*
D03*
Y194724D02*
D03*
Y197283D02*
D03*
Y199843D02*
D03*
Y202402D02*
D03*
Y204961D02*
D03*
Y207520D02*
D03*
X217971Y334449D02*
D03*
Y331890D02*
D03*
Y329331D02*
D03*
Y326772D02*
D03*
Y324213D02*
D03*
Y321654D02*
D03*
Y319094D02*
D03*
Y316535D02*
D03*
Y313976D02*
D03*
Y311417D02*
D03*
X241105D02*
D03*
Y313976D02*
D03*
Y316535D02*
D03*
Y319094D02*
D03*
Y321654D02*
D03*
Y324213D02*
D03*
Y326772D02*
D03*
Y329331D02*
D03*
Y331890D02*
D03*
Y334449D02*
D03*
D21*
X481693Y25089D02*
D03*
X476575D02*
D03*
X481693Y17096D02*
D03*
X476575D02*
D03*
X448228Y85039D02*
D03*
X443110D02*
D03*
X481693Y32929D02*
D03*
X476575D02*
D03*
X448622Y112205D02*
D03*
X443504D02*
D03*
X322550Y62933D02*
D03*
X327668D02*
D03*
X322648Y88917D02*
D03*
X327766D02*
D03*
X322550Y79469D02*
D03*
X327668D02*
D03*
X322550Y71595D02*
D03*
X327668D02*
D03*
X322648Y55453D02*
D03*
X327766D02*
D03*
X322648Y105453D02*
D03*
X327766D02*
D03*
X322648Y96791D02*
D03*
X327766D02*
D03*
X448228Y92520D02*
D03*
X443110D02*
D03*
X448622Y104331D02*
D03*
X443504D02*
D03*
X482087Y141506D02*
D03*
X476968D02*
D03*
X294597Y98366D02*
D03*
X299715D02*
D03*
X294597Y76263D02*
D03*
X299715D02*
D03*
X294597Y109600D02*
D03*
X299715D02*
D03*
X294597Y87320D02*
D03*
X299715D02*
D03*
X294597Y53429D02*
D03*
X299715D02*
D03*
X294597Y64678D02*
D03*
X299715D02*
D03*
X322648Y113721D02*
D03*
X327766D02*
D03*
X482087Y149499D02*
D03*
X476968D02*
D03*
X322944Y187343D02*
D03*
X328062D02*
D03*
X322944Y196004D02*
D03*
X328062D02*
D03*
X322944Y203878D02*
D03*
X328062D02*
D03*
X323042Y221201D02*
D03*
X328160D02*
D03*
X323042Y229862D02*
D03*
X328160D02*
D03*
X323042Y179862D02*
D03*
X328160D02*
D03*
X448622Y209449D02*
D03*
X443504D02*
D03*
X449409Y236614D02*
D03*
X444291D02*
D03*
X323042Y213327D02*
D03*
X328160D02*
D03*
X449409Y228346D02*
D03*
X444291D02*
D03*
X448622Y216929D02*
D03*
X443504D02*
D03*
X482087Y157339D02*
D03*
X476968D02*
D03*
X294991Y177838D02*
D03*
X300109D02*
D03*
X294991Y200673D02*
D03*
X300109D02*
D03*
X294991Y211730D02*
D03*
X300109D02*
D03*
X323042Y238130D02*
D03*
X328160D02*
D03*
X294991Y234010D02*
D03*
X300109D02*
D03*
X294991Y189087D02*
D03*
X300109D02*
D03*
X294991Y222776D02*
D03*
X300109D02*
D03*
X24213Y315354D02*
D03*
X19094D02*
D03*
X445079Y336221D02*
D03*
X450197D02*
D03*
X445472Y363386D02*
D03*
X450591D02*
D03*
X445866Y355512D02*
D03*
X450984D02*
D03*
X445079Y344094D02*
D03*
X450197D02*
D03*
X-22638Y135433D02*
D03*
X-17520D02*
D03*
X-17520Y129134D02*
D03*
X-22638D02*
D03*
X26969Y133071D02*
D03*
X32087D02*
D03*
X26969Y139370D02*
D03*
X32087D02*
D03*
X69488Y314961D02*
D03*
X74606D02*
D03*
X49803D02*
D03*
X44685D02*
D03*
X478543Y268435D02*
D03*
X483661D02*
D03*
X478543Y284268D02*
D03*
X483661D02*
D03*
X329735Y306791D02*
D03*
X324617D02*
D03*
X329637Y314272D02*
D03*
X324518D02*
D03*
X329637Y322933D02*
D03*
X324518D02*
D03*
X329637Y330807D02*
D03*
X324518D02*
D03*
X329735Y340256D02*
D03*
X324617D02*
D03*
X329735Y348130D02*
D03*
X324617D02*
D03*
X329735Y356791D02*
D03*
X324617D02*
D03*
X329735Y365059D02*
D03*
X324617D02*
D03*
X301684Y327602D02*
D03*
X296566D02*
D03*
X301684Y304767D02*
D03*
X296566D02*
D03*
X301684Y316017D02*
D03*
X296566D02*
D03*
X301684Y338659D02*
D03*
X296566D02*
D03*
X301684Y349705D02*
D03*
X296566D02*
D03*
X301684Y360939D02*
D03*
X296566D02*
D03*
X483661Y276428D02*
D03*
X478543D02*
D03*
D22*
X351134Y76634D02*
D03*
Y71634D02*
D03*
Y66634D02*
D03*
Y61634D02*
D03*
X372488D02*
D03*
Y66634D02*
D03*
Y71634D02*
D03*
Y76634D02*
D03*
X351134Y109705D02*
D03*
Y104705D02*
D03*
Y99705D02*
D03*
Y94705D02*
D03*
X372488D02*
D03*
Y99705D02*
D03*
Y104705D02*
D03*
Y109705D02*
D03*
X351528Y201043D02*
D03*
Y196043D02*
D03*
Y191043D02*
D03*
Y186043D02*
D03*
X372882D02*
D03*
Y191043D02*
D03*
Y196043D02*
D03*
Y201043D02*
D03*
X351528Y234114D02*
D03*
Y229114D02*
D03*
Y224114D02*
D03*
Y219114D02*
D03*
X372882D02*
D03*
Y224114D02*
D03*
Y229114D02*
D03*
Y234114D02*
D03*
X374457Y361043D02*
D03*
Y356043D02*
D03*
Y351043D02*
D03*
Y346043D02*
D03*
X353102D02*
D03*
Y351043D02*
D03*
Y356043D02*
D03*
Y361043D02*
D03*
X374457Y327972D02*
D03*
Y322972D02*
D03*
Y317972D02*
D03*
Y312972D02*
D03*
X353102D02*
D03*
Y317972D02*
D03*
Y322972D02*
D03*
Y327972D02*
D03*
D23*
X465650Y88819D02*
D03*
X457776Y85079D02*
D03*
Y92559D02*
D03*
X465748Y108307D02*
D03*
X457874Y104567D02*
D03*
Y112047D02*
D03*
X466043Y213228D02*
D03*
X458169Y209488D02*
D03*
Y216968D02*
D03*
X466142Y232716D02*
D03*
X458268Y228976D02*
D03*
Y236457D02*
D03*
X459744Y343898D02*
D03*
Y336417D02*
D03*
X467618Y340158D02*
D03*
X459842Y363386D02*
D03*
Y355906D02*
D03*
X467717Y359646D02*
D03*
D24*
X205906Y108110D02*
D03*
X194882D02*
D03*
X205906Y118740D02*
D03*
X194882D02*
D03*
X206299Y232520D02*
D03*
X195276D02*
D03*
X206299Y243150D02*
D03*
X195276D02*
D03*
X207874Y370079D02*
D03*
X196850D02*
D03*
X207874Y359449D02*
D03*
X196850D02*
D03*
D25*
X49606Y322047D02*
D03*
X43307D02*
D03*
X17323Y322441D02*
D03*
X23622D02*
D03*
X74410Y323228D02*
D03*
X68110D02*
D03*
D26*
X21654Y307047D02*
D03*
Y288228D02*
D03*
X72441Y306653D02*
D03*
Y287835D02*
D03*
X47244D02*
D03*
Y306653D02*
D03*
D27*
X11839Y104626D02*
D03*
X16839D02*
D03*
X21839D02*
D03*
X26839D02*
D03*
X11839Y126083D02*
D03*
X16839D02*
D03*
X21839D02*
D03*
X26839D02*
D03*
D28*
X10798Y133858D02*
D03*
X17548D02*
D03*
D29*
X-48976Y113386D02*
D03*
Y116535D02*
D03*
Y119685D02*
D03*
Y122835D02*
D03*
Y125984D02*
D03*
Y129134D02*
D03*
Y132283D02*
D03*
Y135433D02*
D03*
Y138583D02*
D03*
Y141732D02*
D03*
Y144882D02*
D03*
Y148031D02*
D03*
Y151181D02*
D03*
Y154331D02*
D03*
Y157480D02*
D03*
Y160630D02*
D03*
Y163779D02*
D03*
Y166929D02*
D03*
Y170079D02*
D03*
Y173228D02*
D03*
Y176378D02*
D03*
Y179528D02*
D03*
Y182677D02*
D03*
Y198425D02*
D03*
Y201575D02*
D03*
Y204725D02*
D03*
Y207874D02*
D03*
Y211024D02*
D03*
Y214173D02*
D03*
Y217323D02*
D03*
Y220472D02*
D03*
Y223622D02*
D03*
Y226772D02*
D03*
Y229921D02*
D03*
Y233071D02*
D03*
Y236220D02*
D03*
Y239370D02*
D03*
Y242520D02*
D03*
Y245669D02*
D03*
Y248819D02*
D03*
Y251968D02*
D03*
Y255118D02*
D03*
Y258268D02*
D03*
Y261417D02*
D03*
Y264567D02*
D03*
Y267716D02*
D03*
Y270866D02*
D03*
Y274016D02*
D03*
Y277166D02*
D03*
Y280315D02*
D03*
M02*
