G04*
G04 #@! TF.GenerationSoftware,Altium Limited,Altium Designer,24.1.2 (44)*
G04*
G04 Layer_Physical_Order=4*
G04 Layer_Color=16711680*
%FSLAX25Y25*%
%MOIN*%
G70*
G04*
G04 #@! TF.SameCoordinates,14951EC0-C73C-489D-96CC-790BF994438B*
G04*
G04*
G04 #@! TF.FilePolarity,Positive*
G04*
G01*
G75*
%ADD11C,0.01000*%
%ADD29R,0.11024X0.02165*%
%ADD50C,0.01968*%
%ADD51C,0.06653*%
%ADD52R,0.06653X0.06653*%
%ADD53C,0.18740*%
%ADD54C,0.05906*%
%ADD55R,0.05906X0.05906*%
%ADD56C,0.01968*%
%ADD57C,0.02362*%
G36*
X545779Y391565D02*
X547020Y391232D01*
X548208Y390740D01*
X549321Y390097D01*
X550340Y389315D01*
X551249Y388406D01*
X552031Y387387D01*
X552674Y386274D01*
X553166Y385086D01*
X553498Y383845D01*
X553666Y382571D01*
Y381928D01*
X553666Y11811D01*
X553666Y11168D01*
X553499Y9894D01*
X553166Y8653D01*
X552674Y7465D01*
X552031Y6352D01*
X551249Y5333D01*
X550340Y4424D01*
X549321Y3642D01*
X548208Y2999D01*
X547020Y2507D01*
X545779Y2175D01*
X544505Y2007D01*
X543862Y2007D01*
X11811Y2007D01*
X11168Y2007D01*
X9894Y2175D01*
X8653Y2507D01*
X7465Y2999D01*
X6352Y3642D01*
X5333Y4424D01*
X4424Y5333D01*
X3642Y6352D01*
X2999Y7466D01*
X2507Y8653D01*
X2175Y9894D01*
X2007Y11168D01*
X2007Y11811D01*
X2007Y99508D01*
X1854Y100276D01*
X1419Y100927D01*
X768Y101362D01*
X-0Y101515D01*
X-23910Y101515D01*
X-23958Y101505D01*
X-24008Y101512D01*
X-24394Y101494D01*
X-24538Y101457D01*
X-24687D01*
X-25444Y101307D01*
X-25627Y101231D01*
X-25820Y101193D01*
X-26533Y100897D01*
X-26698Y100787D01*
X-26880Y100712D01*
X-27522Y100283D01*
X-27662Y100143D01*
X-27826Y100033D01*
X-28372Y99488D01*
X-28482Y99323D01*
X-28622Y99183D01*
X-29050Y98542D01*
X-29126Y98359D01*
X-29236Y98195D01*
X-29531Y97482D01*
X-29570Y97288D01*
X-29645Y97105D01*
X-29796Y96348D01*
Y96200D01*
X-29832Y96055D01*
X-29851Y95669D01*
X-29844Y95620D01*
X-29853Y95571D01*
X-29854Y93641D01*
X-32847D01*
X-32847Y105413D01*
X-32857Y105462D01*
X-32849Y105512D01*
X-32868Y105897D01*
X-32904Y106042D01*
X-32904Y106191D01*
X-33055Y106948D01*
X-33131Y107130D01*
X-33169Y107324D01*
X-33464Y108037D01*
X-33574Y108201D01*
X-33650Y108384D01*
X-34079Y109026D01*
X-34218Y109166D01*
X-34328Y109330D01*
X-34874Y109876D01*
X-35038Y109986D01*
X-35178Y110125D01*
X-35820Y110554D01*
X-36002Y110630D01*
X-36167Y110740D01*
X-36880Y111035D01*
X-37074Y111074D01*
X-37256Y111149D01*
X-38013Y111300D01*
X-38162D01*
X-38306Y111336D01*
X-38692Y111355D01*
X-38742Y111348D01*
X-38791Y111357D01*
X-48819Y111357D01*
Y111909D01*
X-43071D01*
Y111984D01*
X-37398D01*
X-36860Y112091D01*
X-36405Y112396D01*
X-34833Y113967D01*
X-34529Y114423D01*
X-34422Y114961D01*
Y117781D01*
X-34252Y118191D01*
Y118817D01*
X-34492Y119396D01*
X-34935Y119839D01*
X-35513Y120079D01*
X-36140D01*
X-36719Y119839D01*
X-37162Y119396D01*
X-37402Y118817D01*
Y118191D01*
X-37232Y117781D01*
Y115543D01*
X-37980Y114794D01*
X-40581D01*
X-40620Y115188D01*
X-40549Y115202D01*
X-40093Y115507D01*
X-39560Y116040D01*
X-39239Y116254D01*
X-38935Y116710D01*
X-38828Y117247D01*
X-38935Y117785D01*
X-39239Y118241D01*
X-39695Y118545D01*
X-40233Y118652D01*
X-40339D01*
X-40877Y118545D01*
X-41333Y118241D01*
X-41669Y117905D01*
X-42480D01*
Y118602D01*
X-43071D01*
Y121161D01*
X-43071D01*
Y121358D01*
X-43071D01*
Y124311D01*
X-43071D01*
Y124508D01*
X-43071D01*
Y127461D01*
X-43071D01*
Y127657D01*
X-43071D01*
Y128187D01*
X-29233D01*
X-28845Y127799D01*
X-28266Y127559D01*
X-27639D01*
X-27061Y127799D01*
X-26618Y128242D01*
X-26378Y128821D01*
Y129447D01*
X-26618Y130026D01*
X-27061Y130469D01*
X-27639Y130709D01*
X-28266D01*
X-28845Y130469D01*
X-29288Y130026D01*
X-29294Y130010D01*
X-42172D01*
X-42480Y130217D01*
Y131693D01*
X-48976D01*
Y132874D01*
X-42480D01*
Y134350D01*
X-43071D01*
Y136909D01*
X-43071D01*
Y137106D01*
X-43071D01*
Y139665D01*
X-42480D01*
Y141142D01*
X-48976D01*
Y142323D01*
X-42480D01*
Y143799D01*
X-42158Y143971D01*
X-29824D01*
X-29746Y143577D01*
X-30026Y143461D01*
X-30469Y143018D01*
X-30709Y142439D01*
Y141813D01*
X-30469Y141234D01*
X-30026Y140791D01*
X-29447Y140551D01*
X-28821D01*
X-28242Y140791D01*
X-27818Y141215D01*
X-13370D01*
X-8785Y136630D01*
Y112733D01*
X-9209Y112309D01*
X-9449Y111731D01*
Y111104D01*
X-9209Y110525D01*
X-8766Y110082D01*
X-8187Y109843D01*
X-7561D01*
X-6982Y110082D01*
X-6539Y110525D01*
X-6299Y111104D01*
Y111731D01*
X-6539Y112309D01*
X-6963Y112733D01*
Y137008D01*
X-7032Y137357D01*
X-7230Y137652D01*
X-12348Y142770D01*
X-12643Y142968D01*
X-12992Y143037D01*
X-27818D01*
X-28242Y143461D01*
X-28522Y143577D01*
X-28443Y143971D01*
X-11401D01*
X-4848Y137418D01*
Y115834D01*
X-4779Y115485D01*
X-4581Y115190D01*
X-4313Y114922D01*
X-4331Y114880D01*
Y114254D01*
X-4091Y113675D01*
X-3648Y113232D01*
X-3069Y112992D01*
X-2443D01*
X-1864Y113232D01*
X-1421Y113675D01*
X-1181Y114254D01*
Y114880D01*
X-1421Y115459D01*
X-1864Y115902D01*
X-2443Y116142D01*
X-2956D01*
X-3026Y116211D01*
Y137795D01*
X-3095Y138144D01*
X-3293Y138440D01*
X-10379Y145526D01*
X-10675Y145724D01*
X-11024Y145793D01*
X-43071D01*
Y146358D01*
X-43071D01*
Y146555D01*
X-43071D01*
Y149114D01*
X-42480D01*
Y150591D01*
X-48976D01*
Y151772D01*
X-42480D01*
Y153248D01*
X-43071D01*
Y155413D01*
X-42480D01*
Y156890D01*
X-48976D01*
Y158071D01*
X-42480D01*
Y159547D01*
X-43071D01*
Y161713D01*
X-42480D01*
Y163189D01*
X-48976D01*
Y164370D01*
X-42480D01*
Y165846D01*
X-43071D01*
Y168012D01*
X-42480D01*
Y169488D01*
X-48976D01*
Y170669D01*
X-42480D01*
Y172146D01*
X-43071D01*
Y174311D01*
X-42480D01*
Y175787D01*
X-48976D01*
Y176969D01*
X-42480D01*
Y178445D01*
X-43071D01*
Y180610D01*
X-42480D01*
Y182087D01*
X-48976D01*
Y183268D01*
X-42480D01*
Y183820D01*
X-38004D01*
X-37939Y183833D01*
X-37873Y183824D01*
X-37256Y183864D01*
X-37065Y183916D01*
X-36868Y183929D01*
X-35677Y184248D01*
X-35441Y184364D01*
X-35192Y184448D01*
X-34124Y185065D01*
X-33927Y185238D01*
X-33709Y185384D01*
X-32837Y186256D01*
X-32691Y186474D01*
X-32518Y186672D01*
X-31901Y187740D01*
X-31817Y187988D01*
X-31701Y188224D01*
X-31381Y189415D01*
X-31364Y189677D01*
X-31313Y189935D01*
Y191168D01*
X-31364Y191425D01*
X-31381Y191687D01*
X-31701Y192879D01*
X-31817Y193114D01*
X-31901Y193363D01*
X-32518Y194431D01*
X-32691Y194628D01*
X-32837Y194846D01*
X-33709Y195719D01*
X-33927Y195864D01*
X-34124Y196037D01*
X-35192Y196654D01*
X-35441Y196739D01*
X-35677Y196855D01*
X-36868Y197174D01*
X-37065Y197187D01*
X-37256Y197238D01*
X-37873Y197278D01*
X-37939Y197270D01*
X-38004Y197283D01*
X-43071D01*
Y199508D01*
X-42480D01*
Y200984D01*
X-48976D01*
Y202165D01*
X-42480D01*
Y203642D01*
X-42150Y203796D01*
X-40124D01*
X-37795Y201467D01*
Y200868D01*
X-37556Y200289D01*
X-37113Y199846D01*
X-36534Y199606D01*
X-35907D01*
X-35328Y199846D01*
X-34885Y200289D01*
X-34646Y200868D01*
Y201494D01*
X-34885Y202073D01*
X-35328Y202516D01*
X-35907Y202756D01*
X-36507D01*
X-39102Y205351D01*
X-39397Y205549D01*
X-39746Y205618D01*
X-42165D01*
X-42480Y205807D01*
Y207283D01*
X-48976D01*
Y208465D01*
X-42480D01*
Y209941D01*
X-42150Y210095D01*
X-40517D01*
X-37795Y207373D01*
Y206773D01*
X-37556Y206195D01*
X-37113Y205752D01*
X-36534Y205512D01*
X-35907D01*
X-35328Y205752D01*
X-34885Y206195D01*
X-34646Y206773D01*
Y207400D01*
X-34885Y207979D01*
X-35328Y208422D01*
X-35907Y208661D01*
X-36507D01*
X-39496Y211650D01*
X-39791Y211848D01*
X-40140Y211917D01*
X-42165D01*
X-42480Y212106D01*
Y213583D01*
X-48976D01*
Y214764D01*
X-42480D01*
Y216240D01*
X-42150Y216394D01*
X-40124D01*
X-37795Y214066D01*
Y213466D01*
X-37556Y212888D01*
X-37113Y212444D01*
X-36534Y212205D01*
X-35907D01*
X-35328Y212444D01*
X-34885Y212888D01*
X-34646Y213466D01*
Y214093D01*
X-34885Y214672D01*
X-35328Y215115D01*
X-35907Y215354D01*
X-36507D01*
X-39102Y217949D01*
X-39397Y218147D01*
X-39746Y218216D01*
X-42165D01*
X-42480Y218406D01*
Y219882D01*
X-48976D01*
Y221063D01*
X-42480D01*
Y222539D01*
X-42143Y222675D01*
X-40586D01*
X-40237Y222745D01*
X-39942Y222942D01*
X-36112Y226772D01*
X-35513D01*
X-34935Y227011D01*
X-34492Y227454D01*
X-34252Y228033D01*
Y228633D01*
X-23638Y239246D01*
X135827D01*
X136176Y239316D01*
X136471Y239513D01*
X207070Y310112D01*
X209314D01*
X209738Y309689D01*
X210317Y309449D01*
X210943D01*
X211522Y309689D01*
X211965Y310132D01*
X212205Y310710D01*
Y311337D01*
X211965Y311916D01*
X211522Y312359D01*
X210943Y312598D01*
X210317D01*
X209738Y312359D01*
X209314Y311935D01*
X206693D01*
X206344Y311865D01*
X206049Y311668D01*
X135449Y241069D01*
X-24016D01*
X-24364Y240999D01*
X-24660Y240802D01*
X-35541Y229921D01*
X-36140D01*
X-36719Y229681D01*
X-37162Y229239D01*
X-37402Y228660D01*
Y228060D01*
X-40964Y224498D01*
X-42172D01*
X-42480Y224705D01*
Y226181D01*
X-48976D01*
Y227362D01*
X-42480D01*
Y228839D01*
X-42143Y228975D01*
X-39870D01*
X-39521Y229044D01*
X-39226Y229241D01*
X-36507Y231961D01*
X-35907D01*
X-35328Y232200D01*
X-34885Y232643D01*
X-34646Y233222D01*
Y233822D01*
X-25678Y242790D01*
X134359Y242790D01*
X134708Y242859D01*
X135003Y243057D01*
X205603Y313656D01*
X209314D01*
X209738Y313232D01*
X210317Y312992D01*
X210943D01*
X211522Y313232D01*
X211965Y313675D01*
X212205Y314254D01*
Y314880D01*
X211965Y315459D01*
X211522Y315902D01*
X210943Y316142D01*
X210317D01*
X209738Y315902D01*
X209314Y315478D01*
X205225D01*
X204876Y315409D01*
X204581Y315211D01*
X133982Y244612D01*
X-26055Y244612D01*
X-26404Y244543D01*
X-26700Y244345D01*
X-35934Y235110D01*
X-36534D01*
X-37113Y234871D01*
X-37556Y234427D01*
X-37795Y233849D01*
Y233249D01*
X-40247Y230797D01*
X-42172D01*
X-42480Y231004D01*
Y232480D01*
X-48976D01*
Y233661D01*
X-42480D01*
Y235138D01*
X-42143Y235274D01*
X-39870D01*
X-39521Y235343D01*
X-39226Y235541D01*
X-36507Y238260D01*
X-35907D01*
X-35328Y238500D01*
X-34885Y238943D01*
X-34646Y239521D01*
Y240121D01*
X-28040Y246727D01*
X132728Y246727D01*
X133077Y246796D01*
X133373Y246993D01*
X203972Y317593D01*
X209314D01*
X209738Y317169D01*
X210317Y316929D01*
X210943D01*
X211522Y317169D01*
X211965Y317612D01*
X212205Y318191D01*
Y318817D01*
X211965Y319396D01*
X211522Y319839D01*
X210943Y320079D01*
X210317D01*
X209738Y319839D01*
X209314Y319415D01*
X203594D01*
X203246Y319346D01*
X202950Y319148D01*
X132351Y248549D01*
X-28417Y248549D01*
X-28766Y248480D01*
X-29062Y248282D01*
X-35934Y241409D01*
X-36534D01*
X-37113Y241170D01*
X-37556Y240727D01*
X-37795Y240148D01*
Y239548D01*
X-40247Y237096D01*
X-42172D01*
X-42480Y237303D01*
Y238779D01*
X-48976D01*
Y239961D01*
X-42480D01*
Y241437D01*
X-42143Y241573D01*
X-39799D01*
X-39450Y241642D01*
X-39155Y241840D01*
X-36507Y244488D01*
X-35907D01*
X-35328Y244728D01*
X-34885Y245171D01*
X-34646Y245750D01*
Y246349D01*
X-30331Y250664D01*
X131098Y250664D01*
X131446Y250733D01*
X131742Y250931D01*
X202341Y321530D01*
X209314D01*
X209738Y321106D01*
X210317Y320866D01*
X210943D01*
X211522Y321106D01*
X211965Y321549D01*
X212205Y322128D01*
Y322754D01*
X211965Y323333D01*
X211522Y323776D01*
X210943Y324016D01*
X210317D01*
X209738Y323776D01*
X209314Y323352D01*
X201964D01*
X201615Y323283D01*
X201319Y323085D01*
X130720Y252486D01*
X-30709Y252486D01*
X-31057Y252417D01*
X-31353Y252219D01*
X-35934Y247638D01*
X-36534D01*
X-37113Y247398D01*
X-37556Y246955D01*
X-37795Y246376D01*
Y245777D01*
X-40177Y243395D01*
X-42172D01*
X-42480Y243602D01*
Y245079D01*
X-48976D01*
Y246260D01*
X-42480D01*
Y247736D01*
X-42143Y247872D01*
X-39799D01*
X-39450Y247942D01*
X-39155Y248139D01*
X-36507Y250787D01*
X-35907D01*
X-35328Y251027D01*
X-34885Y251470D01*
X-34646Y252049D01*
Y252648D01*
X-33087Y254207D01*
X129630Y254207D01*
X129979Y254276D01*
X130274Y254474D01*
X200873Y325073D01*
X209314D01*
X209738Y324649D01*
X210317Y324410D01*
X210943D01*
X211522Y324649D01*
X211965Y325092D01*
X212205Y325671D01*
Y326297D01*
X211965Y326876D01*
X211522Y327319D01*
X210943Y327559D01*
X210317D01*
X209738Y327319D01*
X209314Y326895D01*
X200496D01*
X200147Y326826D01*
X199852Y326629D01*
X129252Y256029D01*
X-33465Y256029D01*
X-33813Y255960D01*
X-34109Y255762D01*
X-35934Y253937D01*
X-36534D01*
X-37113Y253697D01*
X-37556Y253254D01*
X-37795Y252676D01*
Y252076D01*
X-40177Y249695D01*
X-42172D01*
X-42480Y249902D01*
Y251378D01*
X-48976D01*
Y252559D01*
X-42480D01*
Y254035D01*
X-42143Y254171D01*
X-39012D01*
X-38663Y254241D01*
X-38368Y254438D01*
X-36507Y256299D01*
X-35907D01*
X-35328Y256539D01*
X-34905Y256963D01*
X127375D01*
X127724Y257032D01*
X128019Y257230D01*
X199406Y328616D01*
X209314D01*
X209738Y328192D01*
X210317Y327953D01*
X210943D01*
X211522Y328192D01*
X211965Y328636D01*
X212205Y329214D01*
Y329841D01*
X211965Y330420D01*
X211522Y330863D01*
X210943Y331102D01*
X210317D01*
X209738Y330863D01*
X209314Y330439D01*
X199028D01*
X198680Y330369D01*
X198384Y330172D01*
X126997Y258785D01*
X-34905D01*
X-35328Y259209D01*
X-35907Y259449D01*
X-36534D01*
X-37113Y259209D01*
X-37556Y258766D01*
X-37795Y258187D01*
Y257588D01*
X-39389Y255994D01*
X-42172D01*
X-42480Y256201D01*
Y257677D01*
X-48976D01*
Y258858D01*
X-42480D01*
Y259977D01*
X-32073D01*
X-31791Y259861D01*
X-31165D01*
X-30586Y260100D01*
X-30143Y260543D01*
X-29903Y261122D01*
Y261749D01*
X-30143Y262328D01*
X-30586Y262771D01*
X-31165Y263010D01*
X-31791D01*
X-32330Y262787D01*
X-42480D01*
Y263976D01*
X-48976D01*
Y265157D01*
X-42480D01*
Y266277D01*
X-32073D01*
X-31791Y266160D01*
X-31165D01*
X-30883Y266277D01*
X-25835D01*
X-25510Y266142D01*
X-24884D01*
X-24305Y266382D01*
X-23862Y266825D01*
X-23622Y267403D01*
Y268030D01*
X-23862Y268609D01*
X-24305Y269052D01*
X-24884Y269291D01*
X-25510D01*
X-26005Y269086D01*
X-30626D01*
X-31165Y269309D01*
X-31791D01*
X-32330Y269086D01*
X-42480D01*
Y270275D01*
X-48976D01*
Y271457D01*
X-42480D01*
Y272593D01*
X-32176D01*
X-31809Y272441D01*
X-31183D01*
X-30604Y272681D01*
X-30161Y273124D01*
X-29921Y273703D01*
Y274329D01*
X-30161Y274908D01*
X-30604Y275351D01*
X-31183Y275591D01*
X-31809D01*
X-32262Y275403D01*
X-42480D01*
Y276575D01*
X-48976D01*
Y277756D01*
X-42480D01*
Y278248D01*
Y279725D01*
X-48976D01*
Y280906D01*
X-42480D01*
Y282343D01*
X-38791D01*
X-38742Y282353D01*
X-38693Y282346D01*
X-38307Y282365D01*
X-38162Y282401D01*
X-38013Y282401D01*
X-37257Y282551D01*
X-37074Y282627D01*
X-36880Y282665D01*
X-36167Y282961D01*
X-36002Y283071D01*
X-35820Y283146D01*
X-35178Y283575D01*
X-35038Y283715D01*
X-34874Y283825D01*
X-34328Y284370D01*
X-34218Y284535D01*
X-34078Y284675D01*
X-33650Y285316D01*
X-33574Y285499D01*
X-33464Y285664D01*
X-33169Y286377D01*
X-33130Y286570D01*
X-33055Y286753D01*
X-32904Y287510D01*
X-32904Y287659D01*
X-32868Y287803D01*
X-32849Y288189D01*
X-32857Y288239D01*
X-32847Y288287D01*
X-32847Y300060D01*
X-29853Y300060D01*
X-29853Y298130D01*
X-29844Y298081D01*
X-29851Y298031D01*
X-29832Y297646D01*
X-29796Y297501D01*
X-29796Y297353D01*
X-29645Y296596D01*
X-29570Y296413D01*
X-29531Y296219D01*
X-29236Y295506D01*
X-29126Y295342D01*
X-29050Y295159D01*
X-28622Y294517D01*
X-28482Y294377D01*
X-28372Y294213D01*
X-27826Y293667D01*
X-27662Y293558D01*
X-27522Y293418D01*
X-26880Y292989D01*
X-26698Y292913D01*
X-26533Y292804D01*
X-25820Y292508D01*
X-25626Y292470D01*
X-25444Y292394D01*
X-24687Y292243D01*
X-24538Y292243D01*
X-24394Y292207D01*
X-24008Y292188D01*
X-23958Y292196D01*
X-23910Y292186D01*
X-0D01*
X768Y292339D01*
X1419Y292774D01*
X1854Y293425D01*
X2007Y294193D01*
X2007Y381890D01*
X2007Y382532D01*
X2175Y383806D01*
X2507Y385048D01*
X2999Y386235D01*
X3642Y387348D01*
X4424Y388368D01*
X5333Y389277D01*
X6352Y390059D01*
X7465Y390702D01*
X8653Y391193D01*
X9894Y391526D01*
X11168Y391694D01*
X11811D01*
X11811Y391694D01*
X11811Y391694D01*
X543862Y391732D01*
X544505D01*
X545779Y391565D01*
D02*
G37*
%LPC*%
G36*
X191258Y371260D02*
X190632D01*
X190053Y371020D01*
X189610Y370577D01*
X189370Y369998D01*
Y369372D01*
X189610Y368793D01*
X190053Y368350D01*
X190632Y368110D01*
X191258D01*
X191837Y368350D01*
X192280Y368793D01*
X192520Y369372D01*
Y369998D01*
X192280Y370577D01*
X191837Y371020D01*
X191258Y371260D01*
D02*
G37*
G36*
X371179Y370472D02*
X370553D01*
X369974Y370233D01*
X369531Y369790D01*
X369291Y369211D01*
Y368584D01*
X369531Y368006D01*
X369760Y367777D01*
X369943Y367520D01*
X369760Y367263D01*
X369531Y367034D01*
X369291Y366455D01*
Y365828D01*
X369531Y365250D01*
X369974Y364807D01*
X370553Y364567D01*
X371179D01*
X371758Y364807D01*
X372201Y365250D01*
X372441Y365828D01*
Y366455D01*
X372201Y367034D01*
X371972Y367263D01*
X371789Y367520D01*
X371972Y367777D01*
X372201Y368006D01*
X372441Y368584D01*
Y369211D01*
X372201Y369790D01*
X371758Y370233D01*
X371179Y370472D01*
D02*
G37*
G36*
X320206Y366634D02*
X319579D01*
X319000Y366394D01*
X318557Y365951D01*
X318318Y365372D01*
Y364746D01*
X318557Y364167D01*
X319000Y363724D01*
X319579Y363484D01*
X320206D01*
X320784Y363724D01*
X321228Y364167D01*
X321467Y364746D01*
Y365372D01*
X321228Y365951D01*
X320784Y366394D01*
X320206Y366634D01*
D02*
G37*
G36*
X519072Y382185D02*
X517149D01*
X515262Y381810D01*
X513485Y381074D01*
X511886Y380005D01*
X510526Y378645D01*
X509458Y377046D01*
X508722Y375269D01*
X508347Y373383D01*
Y371460D01*
X508722Y369573D01*
X509458Y367796D01*
X510526Y366197D01*
X511886Y364837D01*
X513485Y363769D01*
X515262Y363033D01*
X517149Y362657D01*
X519072D01*
X520958Y363033D01*
X522735Y363769D01*
X524334Y364837D01*
X525694Y366197D01*
X526763Y367796D01*
X527499Y369573D01*
X527874Y371460D01*
Y373383D01*
X527499Y375269D01*
X526763Y377046D01*
X525694Y378645D01*
X524334Y380005D01*
X522735Y381074D01*
X520958Y381810D01*
X519072Y382185D01*
D02*
G37*
G36*
X484449Y369252D02*
X477756D01*
Y362559D01*
X484449D01*
Y369252D01*
D02*
G37*
G36*
X290383Y362641D02*
X289756D01*
X289177Y362402D01*
X288735Y361959D01*
X288495Y361380D01*
Y360753D01*
X288735Y360174D01*
X289177Y359732D01*
X289756Y359492D01*
X290383D01*
X290962Y359732D01*
X291405Y360174D01*
X291644Y360753D01*
Y361380D01*
X291405Y361959D01*
X290962Y362402D01*
X290383Y362641D01*
D02*
G37*
G36*
X190401Y361042D02*
X189774D01*
X189196Y360802D01*
X188752Y360359D01*
X188513Y359780D01*
Y359154D01*
X188752Y358575D01*
X189196Y358132D01*
X189774Y357892D01*
X190401D01*
X190980Y358132D01*
X191423Y358575D01*
X191662Y359154D01*
Y359780D01*
X191423Y360359D01*
X190980Y360802D01*
X190401Y361042D01*
D02*
G37*
G36*
X319590Y358247D02*
X318964D01*
X318385Y358007D01*
X317942Y357564D01*
X317702Y356985D01*
Y356359D01*
X317942Y355780D01*
X318385Y355337D01*
X318964Y355097D01*
X319590D01*
X320169Y355337D01*
X320612Y355780D01*
X320852Y356359D01*
Y356985D01*
X320612Y357564D01*
X320169Y358007D01*
X319590Y358247D01*
D02*
G37*
G36*
X481543Y359252D02*
X480662D01*
X479811Y359024D01*
X479048Y358583D01*
X478425Y357960D01*
X477984Y357197D01*
X477756Y356346D01*
Y355465D01*
X477984Y354614D01*
X478425Y353851D01*
X479048Y353228D01*
X479811Y352787D01*
X480662Y352559D01*
X481543D01*
X482394Y352787D01*
X483157Y353228D01*
X483780Y353851D01*
X484221Y354614D01*
X484449Y355465D01*
Y356346D01*
X484221Y357197D01*
X483780Y357960D01*
X483157Y358583D01*
X482394Y359024D01*
X481543Y359252D01*
D02*
G37*
G36*
X290383Y351224D02*
X289756D01*
X289177Y350984D01*
X288735Y350541D01*
X288495Y349962D01*
Y349336D01*
X288735Y348757D01*
X289177Y348314D01*
X289756Y348075D01*
X290383D01*
X290962Y348314D01*
X291405Y348757D01*
X291644Y349336D01*
Y349962D01*
X291405Y350541D01*
X290962Y350984D01*
X290383Y351224D01*
D02*
G37*
G36*
X481543Y349252D02*
X480662D01*
X479811Y349024D01*
X479048Y348583D01*
X478425Y347960D01*
X477984Y347197D01*
X477756Y346346D01*
Y345465D01*
X477984Y344614D01*
X478425Y343851D01*
X479048Y343228D01*
X479811Y342787D01*
X480662Y342559D01*
X481543D01*
X482394Y342787D01*
X483157Y343228D01*
X483780Y343851D01*
X484221Y344614D01*
X484449Y345465D01*
Y346346D01*
X484221Y347197D01*
X483780Y347960D01*
X483157Y348583D01*
X482394Y349024D01*
X481543Y349252D01*
D02*
G37*
G36*
X516240Y348760D02*
X508799D01*
Y341319D01*
X516240D01*
Y348760D01*
D02*
G37*
G36*
X335363Y341831D02*
X334737D01*
X334158Y341591D01*
X333715Y341148D01*
X333475Y340569D01*
Y339943D01*
X333715Y339364D01*
X334158Y338921D01*
X334737Y338681D01*
X335363D01*
X335942Y338921D01*
X336385Y339364D01*
X336625Y339943D01*
Y340569D01*
X336385Y341148D01*
X335942Y341591D01*
X335363Y341831D01*
D02*
G37*
G36*
X290383Y340594D02*
X289756D01*
X289177Y340354D01*
X288735Y339911D01*
X288495Y339333D01*
Y338706D01*
X288735Y338127D01*
X289177Y337684D01*
X289756Y337444D01*
X290383D01*
X290962Y337684D01*
X291405Y338127D01*
X291644Y338706D01*
Y339333D01*
X291405Y339911D01*
X290962Y340354D01*
X290383Y340594D01*
D02*
G37*
G36*
X524191Y343307D02*
X523211D01*
X522265Y343054D01*
X521416Y342564D01*
X520724Y341871D01*
X520234Y341023D01*
X519980Y340076D01*
Y339097D01*
X520234Y338151D01*
X520724Y337302D01*
X521416Y336610D01*
X522265Y336120D01*
X523211Y335866D01*
X524191D01*
X525137Y336120D01*
X525985Y336610D01*
X526678Y337302D01*
X527168Y338151D01*
X527421Y339097D01*
Y340076D01*
X527168Y341023D01*
X526678Y341871D01*
X525985Y342564D01*
X525137Y343054D01*
X524191Y343307D01*
D02*
G37*
G36*
X481543Y339252D02*
X480662D01*
X479811Y339024D01*
X479048Y338583D01*
X478425Y337960D01*
X477984Y337197D01*
X477756Y336346D01*
Y335465D01*
X477984Y334614D01*
X478425Y333851D01*
X479048Y333228D01*
X479811Y332787D01*
X480662Y332559D01*
X481543D01*
X482394Y332787D01*
X483157Y333228D01*
X483780Y333851D01*
X484221Y334614D01*
X484449Y335465D01*
Y336346D01*
X484221Y337197D01*
X483780Y337960D01*
X483157Y338583D01*
X482394Y339024D01*
X481543Y339252D01*
D02*
G37*
G36*
X372360Y337402D02*
X371734D01*
X371155Y337162D01*
X370712Y336719D01*
X370472Y336140D01*
Y335513D01*
X370712Y334935D01*
X371155Y334492D01*
X371259Y334449D01*
Y334055D01*
X371155Y334012D01*
X370712Y333569D01*
X370472Y332990D01*
Y332364D01*
X370712Y331785D01*
X371155Y331342D01*
X371734Y331102D01*
X372360D01*
X372939Y331342D01*
X373382Y331785D01*
X373622Y332364D01*
Y332990D01*
X373382Y333569D01*
X372939Y334012D01*
X372836Y334055D01*
Y334449D01*
X372939Y334492D01*
X373382Y334935D01*
X373622Y335513D01*
Y336140D01*
X373382Y336719D01*
X372939Y337162D01*
X372360Y337402D01*
D02*
G37*
G36*
X513010Y337854D02*
X512030D01*
X511084Y337601D01*
X510235Y337111D01*
X509543Y336418D01*
X509053Y335570D01*
X508799Y334624D01*
Y333644D01*
X509053Y332698D01*
X509543Y331849D01*
X510235Y331157D01*
X511084Y330667D01*
X512030Y330413D01*
X513010D01*
X513956Y330667D01*
X514804Y331157D01*
X515497Y331849D01*
X515987Y332698D01*
X516240Y333644D01*
Y334624D01*
X515987Y335570D01*
X515497Y336418D01*
X514804Y337111D01*
X513956Y337601D01*
X513010Y337854D01*
D02*
G37*
G36*
X319123Y332382D02*
X318496D01*
X317918Y332142D01*
X317475Y331699D01*
X317235Y331120D01*
Y330494D01*
X317475Y329915D01*
X317918Y329472D01*
X318496Y329232D01*
X319123D01*
X319702Y329472D01*
X320145Y329915D01*
X320385Y330494D01*
Y331120D01*
X320145Y331699D01*
X319702Y332142D01*
X319123Y332382D01*
D02*
G37*
G36*
X290383Y329177D02*
X289756D01*
X289177Y328937D01*
X288735Y328494D01*
X288495Y327915D01*
Y327289D01*
X288735Y326710D01*
X289177Y326267D01*
X289756Y326027D01*
X290383D01*
X290962Y326267D01*
X291405Y326710D01*
X291644Y327289D01*
Y327915D01*
X291405Y328494D01*
X290962Y328937D01*
X290383Y329177D01*
D02*
G37*
G36*
X524191Y332402D02*
X523211D01*
X522265Y332148D01*
X521416Y331658D01*
X520724Y330965D01*
X520234Y330117D01*
X519980Y329171D01*
Y328191D01*
X520234Y327245D01*
X520724Y326397D01*
X521416Y325704D01*
X522265Y325214D01*
X523211Y324961D01*
X524191D01*
X525137Y325214D01*
X525985Y325704D01*
X526678Y326397D01*
X527168Y327245D01*
X527421Y328191D01*
Y329171D01*
X527168Y330117D01*
X526678Y330965D01*
X525985Y331658D01*
X525137Y332148D01*
X524191Y332402D01*
D02*
G37*
G36*
X481543Y329252D02*
X480662D01*
X479811Y329024D01*
X479048Y328583D01*
X478425Y327960D01*
X477984Y327197D01*
X477756Y326346D01*
Y325465D01*
X477984Y324614D01*
X478425Y323851D01*
X479048Y323228D01*
X479811Y322787D01*
X480662Y322559D01*
X481543D01*
X482394Y322787D01*
X483157Y323228D01*
X483780Y323851D01*
X484221Y324614D01*
X484449Y325465D01*
Y326346D01*
X484221Y327197D01*
X483780Y327960D01*
X483157Y328583D01*
X482394Y329024D01*
X481543Y329252D01*
D02*
G37*
G36*
X319123Y324508D02*
X318496D01*
X317918Y324268D01*
X317475Y323825D01*
X317235Y323246D01*
Y322620D01*
X317475Y322041D01*
X317918Y321598D01*
X318496Y321358D01*
X319123D01*
X319702Y321598D01*
X320145Y322041D01*
X320385Y322620D01*
Y323246D01*
X320145Y323825D01*
X319702Y324268D01*
X319123Y324508D01*
D02*
G37*
G36*
X513010Y326949D02*
X512030D01*
X511084Y326695D01*
X510235Y326205D01*
X509543Y325513D01*
X509053Y324664D01*
X508799Y323718D01*
Y322739D01*
X509053Y321792D01*
X509543Y320944D01*
X510235Y320251D01*
X511084Y319761D01*
X512030Y319508D01*
X513010D01*
X513956Y319761D01*
X514804Y320251D01*
X515497Y320944D01*
X515987Y321792D01*
X516240Y322739D01*
Y323718D01*
X515987Y324664D01*
X515497Y325513D01*
X514804Y326205D01*
X513956Y326695D01*
X513010Y326949D01*
D02*
G37*
G36*
X290383Y317759D02*
X289756D01*
X289177Y317520D01*
X288735Y317077D01*
X288495Y316498D01*
Y315872D01*
X288735Y315293D01*
X289177Y314850D01*
X289756Y314610D01*
X290383D01*
X290962Y314850D01*
X291405Y315293D01*
X291644Y315872D01*
Y316498D01*
X291405Y317077D01*
X290962Y317520D01*
X290383Y317759D01*
D02*
G37*
G36*
X524191Y321496D02*
X523211D01*
X522265Y321242D01*
X521416Y320753D01*
X520724Y320060D01*
X520234Y319212D01*
X519980Y318265D01*
Y317286D01*
X520234Y316340D01*
X520724Y315491D01*
X521416Y314798D01*
X522265Y314309D01*
X523211Y314055D01*
X524191D01*
X525137Y314309D01*
X525985Y314798D01*
X526678Y315491D01*
X527168Y316340D01*
X527421Y317286D01*
Y318265D01*
X527168Y319212D01*
X526678Y320060D01*
X525985Y320753D01*
X525137Y321242D01*
X524191Y321496D01*
D02*
G37*
G36*
X481543Y319252D02*
X480662D01*
X479811Y319024D01*
X479048Y318583D01*
X478425Y317960D01*
X477984Y317197D01*
X477756Y316346D01*
Y315465D01*
X477984Y314614D01*
X478425Y313851D01*
X479048Y313228D01*
X479811Y312787D01*
X480662Y312559D01*
X481543D01*
X482394Y312787D01*
X483157Y313228D01*
X483780Y313851D01*
X484221Y314614D01*
X484449Y315465D01*
Y316346D01*
X484221Y317197D01*
X483780Y317960D01*
X483157Y318583D01*
X482394Y319024D01*
X481543Y319252D01*
D02*
G37*
G36*
X513010Y316043D02*
X512030D01*
X511084Y315790D01*
X510235Y315300D01*
X509543Y314607D01*
X509053Y313759D01*
X508799Y312813D01*
Y311833D01*
X509053Y310887D01*
X509543Y310038D01*
X510235Y309346D01*
X511084Y308856D01*
X512030Y308602D01*
X513010D01*
X513956Y308856D01*
X514804Y309346D01*
X515497Y310038D01*
X515987Y310887D01*
X516240Y311833D01*
Y312813D01*
X515987Y313759D01*
X515497Y314607D01*
X514804Y315300D01*
X513956Y315790D01*
X513010Y316043D01*
D02*
G37*
G36*
X474329Y307480D02*
X473702D01*
X473124Y307241D01*
X472895Y307012D01*
X472638Y306828D01*
X472381Y307012D01*
X472152Y307241D01*
X471573Y307480D01*
X470947D01*
X470368Y307241D01*
X469925Y306798D01*
X469685Y306219D01*
Y305592D01*
X469925Y305013D01*
X470368Y304571D01*
X470947Y304331D01*
X471573D01*
X472152Y304571D01*
X472381Y304799D01*
X472638Y304983D01*
X472895Y304799D01*
X473124Y304571D01*
X473702Y304331D01*
X474329D01*
X474908Y304571D01*
X475351Y305013D01*
X475591Y305592D01*
Y306219D01*
X475351Y306798D01*
X474908Y307241D01*
X474329Y307480D01*
D02*
G37*
G36*
X82990Y308661D02*
X82364D01*
X81785Y308422D01*
X81342Y307979D01*
X81102Y307400D01*
Y306773D01*
X81342Y306195D01*
X81785Y305752D01*
X82364Y305512D01*
X82990D01*
X83569Y305752D01*
X84012Y306195D01*
X84252Y306773D01*
Y307400D01*
X84012Y307979D01*
X83569Y308422D01*
X82990Y308661D01*
D02*
G37*
G36*
X57400D02*
X56773D01*
X56195Y308422D01*
X55752Y307979D01*
X55512Y307400D01*
Y306773D01*
X55752Y306195D01*
X56195Y305752D01*
X56773Y305512D01*
X57400D01*
X57979Y305752D01*
X58422Y306195D01*
X58661Y306773D01*
Y307400D01*
X58422Y307979D01*
X57979Y308422D01*
X57400Y308661D01*
D02*
G37*
G36*
X31809D02*
X31183D01*
X30604Y308422D01*
X30161Y307979D01*
X29921Y307400D01*
Y306773D01*
X30161Y306195D01*
X30604Y305752D01*
X31183Y305512D01*
X31809D01*
X32388Y305752D01*
X32831Y306195D01*
X33071Y306773D01*
Y307400D01*
X32831Y307979D01*
X32388Y308422D01*
X31809Y308661D01*
D02*
G37*
G36*
X335413Y308313D02*
X334786D01*
X334208Y308073D01*
X333765Y307630D01*
X333525Y307052D01*
Y306425D01*
X333765Y305846D01*
X334208Y305403D01*
X334786Y305164D01*
X335413D01*
X335992Y305403D01*
X336435Y305846D01*
X336674Y306425D01*
Y307052D01*
X336435Y307630D01*
X335992Y308073D01*
X335413Y308313D01*
D02*
G37*
G36*
X290346Y306342D02*
X289719D01*
X289141Y306102D01*
X288698Y305659D01*
X288458Y305081D01*
Y304454D01*
X288698Y303875D01*
X289141Y303432D01*
X289719Y303193D01*
X290346D01*
X290925Y303432D01*
X291368Y303875D01*
X291607Y304454D01*
Y305081D01*
X291368Y305659D01*
X290925Y306102D01*
X290346Y306342D01*
D02*
G37*
G36*
X524191Y310591D02*
X523211D01*
X522265Y310337D01*
X521416Y309847D01*
X520724Y309155D01*
X520234Y308306D01*
X519980Y307360D01*
Y306380D01*
X520234Y305434D01*
X520724Y304586D01*
X521416Y303893D01*
X522265Y303403D01*
X523211Y303150D01*
X524191D01*
X525137Y303403D01*
X525985Y303893D01*
X526678Y304586D01*
X527168Y305434D01*
X527421Y306380D01*
Y307360D01*
X527168Y308306D01*
X526678Y309155D01*
X525985Y309847D01*
X525137Y310337D01*
X524191Y310591D01*
D02*
G37*
G36*
X481543Y309252D02*
X480662D01*
X479811Y309024D01*
X479048Y308583D01*
X478425Y307960D01*
X477984Y307197D01*
X477756Y306346D01*
Y305465D01*
X477984Y304614D01*
X478425Y303851D01*
X479048Y303228D01*
X479811Y302787D01*
X480662Y302559D01*
X481543D01*
X482394Y302787D01*
X483157Y303228D01*
X483780Y303851D01*
X484221Y304614D01*
X484449Y305465D01*
Y306346D01*
X484221Y307197D01*
X483780Y307960D01*
X483157Y308583D01*
X482394Y309024D01*
X481543Y309252D01*
D02*
G37*
G36*
X513010Y305138D02*
X512030D01*
X511084Y304884D01*
X510235Y304395D01*
X509543Y303702D01*
X509053Y302853D01*
X508799Y301907D01*
Y300927D01*
X509053Y299981D01*
X509543Y299133D01*
X510235Y298440D01*
X511084Y297950D01*
X512030Y297697D01*
X513010D01*
X513956Y297950D01*
X514804Y298440D01*
X515497Y299133D01*
X515987Y299981D01*
X516240Y300927D01*
Y301907D01*
X515987Y302853D01*
X515497Y303702D01*
X514804Y304395D01*
X513956Y304884D01*
X513010Y305138D01*
D02*
G37*
G36*
X481543Y299252D02*
X480662D01*
X479811Y299024D01*
X479048Y298583D01*
X478425Y297960D01*
X477984Y297197D01*
X477756Y296346D01*
Y295465D01*
X477984Y294614D01*
X478425Y293851D01*
X479048Y293228D01*
X479811Y292787D01*
X480662Y292559D01*
X481543D01*
X482394Y292787D01*
X483157Y293228D01*
X483780Y293851D01*
X484221Y294614D01*
X484449Y295465D01*
Y296346D01*
X484221Y297197D01*
X483780Y297960D01*
X483157Y298583D01*
X482394Y299024D01*
X481543Y299252D01*
D02*
G37*
G36*
X-24884Y275591D02*
X-25510D01*
X-26089Y275351D01*
X-26532Y274908D01*
X-26772Y274329D01*
Y273703D01*
X-26532Y273124D01*
X-26089Y272681D01*
X-25510Y272441D01*
X-24884D01*
X-24305Y272681D01*
X-23862Y273124D01*
X-23622Y273703D01*
Y274329D01*
X-23862Y274908D01*
X-24305Y275351D01*
X-24884Y275591D01*
D02*
G37*
G36*
X519072Y283799D02*
X517149D01*
X515262Y283424D01*
X513485Y282688D01*
X511886Y281620D01*
X510526Y280259D01*
X509458Y278660D01*
X508722Y276883D01*
X508347Y274997D01*
Y273074D01*
X508722Y271187D01*
X509458Y269411D01*
X510526Y267811D01*
X511886Y266451D01*
X513485Y265383D01*
X515262Y264647D01*
X517149Y264272D01*
X519072D01*
X520958Y264647D01*
X522735Y265383D01*
X524334Y266451D01*
X525694Y267811D01*
X526763Y269411D01*
X527499Y271187D01*
X527874Y273074D01*
Y274997D01*
X527499Y276883D01*
X526763Y278660D01*
X525694Y280259D01*
X524334Y281620D01*
X522735Y282688D01*
X520958Y283424D01*
X519072Y283799D01*
D02*
G37*
G36*
X-25277Y262992D02*
X-25904D01*
X-26483Y262752D01*
X-26926Y262309D01*
X-27165Y261731D01*
Y261104D01*
X-26926Y260525D01*
X-26483Y260082D01*
X-25904Y259842D01*
X-25277D01*
X-24699Y260082D01*
X-24256Y260525D01*
X-24016Y261104D01*
Y261731D01*
X-24256Y262309D01*
X-24699Y262752D01*
X-25277Y262992D01*
D02*
G37*
G36*
X189290Y244488D02*
X188663D01*
X188084Y244248D01*
X187641Y243805D01*
X187402Y243227D01*
Y242600D01*
X187641Y242021D01*
X188084Y241578D01*
X188663Y241339D01*
X189290D01*
X189868Y241578D01*
X190311Y242021D01*
X190551Y242600D01*
Y243227D01*
X190311Y243805D01*
X189868Y244248D01*
X189290Y244488D01*
D02*
G37*
G36*
X369605Y243701D02*
X368978D01*
X368399Y243461D01*
X367956Y243018D01*
X367717Y242439D01*
Y241813D01*
X367956Y241234D01*
X368185Y241005D01*
X368369Y240748D01*
X368185Y240491D01*
X367956Y240262D01*
X367717Y239683D01*
Y239057D01*
X367956Y238478D01*
X368399Y238035D01*
X368978Y237795D01*
X369605D01*
X370183Y238035D01*
X370626Y238478D01*
X370866Y239057D01*
Y239683D01*
X370626Y240262D01*
X370398Y240491D01*
X370214Y240748D01*
X370398Y241005D01*
X370626Y241234D01*
X370866Y241813D01*
Y242439D01*
X370626Y243018D01*
X370183Y243461D01*
X369605Y243701D01*
D02*
G37*
G36*
X318631Y239705D02*
X318004D01*
X317426Y239465D01*
X316983Y239022D01*
X316743Y238443D01*
Y237817D01*
X316983Y237238D01*
X317426Y236795D01*
X318004Y236555D01*
X318631D01*
X319210Y236795D01*
X319653Y237238D01*
X319892Y237817D01*
Y238443D01*
X319653Y239022D01*
X319210Y239465D01*
X318631Y239705D01*
D02*
G37*
G36*
X519072Y255807D02*
X517149D01*
X515262Y255432D01*
X513485Y254696D01*
X511886Y253627D01*
X510526Y252267D01*
X509458Y250668D01*
X508722Y248891D01*
X508347Y247005D01*
Y245082D01*
X508722Y243195D01*
X509458Y241418D01*
X510526Y239819D01*
X511886Y238459D01*
X513485Y237391D01*
X515262Y236655D01*
X517149Y236280D01*
X519072D01*
X520958Y236655D01*
X522735Y237391D01*
X524334Y238459D01*
X525694Y239819D01*
X526763Y241418D01*
X527499Y243195D01*
X527874Y245082D01*
Y247005D01*
X527499Y248891D01*
X526763Y250668D01*
X525694Y252267D01*
X524334Y253627D01*
X522735Y254696D01*
X520958Y255432D01*
X519072Y255807D01*
D02*
G37*
G36*
X482874Y242323D02*
X476181D01*
Y235630D01*
X482874D01*
Y242323D01*
D02*
G37*
G36*
X288808Y235712D02*
X288181D01*
X287603Y235472D01*
X287160Y235030D01*
X286920Y234451D01*
Y233824D01*
X287160Y233245D01*
X287603Y232802D01*
X288181Y232563D01*
X288808D01*
X289387Y232802D01*
X289830Y233245D01*
X290070Y233824D01*
Y234451D01*
X289830Y235030D01*
X289387Y235472D01*
X288808Y235712D01*
D02*
G37*
G36*
X189290Y233858D02*
X188663D01*
X188084Y233618D01*
X187641Y233175D01*
X187402Y232597D01*
Y231970D01*
X187641Y231391D01*
X188084Y230948D01*
X188663Y230709D01*
X189290D01*
X189868Y230948D01*
X190311Y231391D01*
X190551Y231970D01*
Y232597D01*
X190311Y233175D01*
X189868Y233618D01*
X189290Y233858D01*
D02*
G37*
G36*
X318016Y231317D02*
X317389D01*
X316810Y231078D01*
X316367Y230635D01*
X316128Y230056D01*
Y229429D01*
X316367Y228851D01*
X316810Y228408D01*
X317389Y228168D01*
X318016D01*
X318594Y228408D01*
X319037Y228851D01*
X319277Y229429D01*
Y230056D01*
X319037Y230635D01*
X318594Y231078D01*
X318016Y231317D01*
D02*
G37*
G36*
X479968Y232323D02*
X479087D01*
X478236Y232095D01*
X477473Y231654D01*
X476850Y231031D01*
X476409Y230268D01*
X476181Y229417D01*
Y228536D01*
X476409Y227685D01*
X476850Y226922D01*
X477473Y226298D01*
X478236Y225858D01*
X479087Y225630D01*
X479968D01*
X480819Y225858D01*
X481582Y226298D01*
X482205Y226922D01*
X482646Y227685D01*
X482874Y228536D01*
Y229417D01*
X482646Y230268D01*
X482205Y231031D01*
X481582Y231654D01*
X480819Y232095D01*
X479968Y232323D01*
D02*
G37*
G36*
X288808Y224295D02*
X288181D01*
X287603Y224055D01*
X287160Y223612D01*
X286920Y223033D01*
Y222407D01*
X287160Y221828D01*
X287603Y221385D01*
X288181Y221145D01*
X288808D01*
X289387Y221385D01*
X289830Y221828D01*
X290070Y222407D01*
Y223033D01*
X289830Y223612D01*
X289387Y224055D01*
X288808Y224295D01*
D02*
G37*
G36*
X-34176Y225197D02*
X-35116D01*
X-35984Y224837D01*
X-36648Y224173D01*
X-37008Y223305D01*
Y222365D01*
X-36648Y221497D01*
X-35984Y220832D01*
X-35116Y220472D01*
X-34176D01*
X-33308Y220832D01*
X-32643Y221497D01*
X-32283Y222365D01*
Y223305D01*
X-32643Y224173D01*
X-33308Y224837D01*
X-34176Y225197D01*
D02*
G37*
G36*
X479968Y222323D02*
X479087D01*
X478236Y222095D01*
X477473Y221654D01*
X476850Y221031D01*
X476409Y220268D01*
X476181Y219417D01*
Y218536D01*
X476409Y217685D01*
X476850Y216922D01*
X477473Y216299D01*
X478236Y215858D01*
X479087Y215630D01*
X479968D01*
X480819Y215858D01*
X481582Y216299D01*
X482205Y216922D01*
X482646Y217685D01*
X482874Y218536D01*
Y219417D01*
X482646Y220268D01*
X482205Y221031D01*
X481582Y221654D01*
X480819Y222095D01*
X479968Y222323D01*
D02*
G37*
G36*
X516240Y222382D02*
X508799D01*
Y214941D01*
X516240D01*
Y222382D01*
D02*
G37*
G36*
X333788Y214902D02*
X333162D01*
X332583Y214662D01*
X332140Y214219D01*
X331900Y213640D01*
Y213014D01*
X332140Y212435D01*
X332583Y211992D01*
X333162Y211752D01*
X333788D01*
X334367Y211992D01*
X334810Y212435D01*
X335050Y213014D01*
Y213640D01*
X334810Y214219D01*
X334367Y214662D01*
X333788Y214902D01*
D02*
G37*
G36*
X288808Y213665D02*
X288181D01*
X287603Y213425D01*
X287160Y212982D01*
X286920Y212403D01*
Y211777D01*
X287160Y211198D01*
X287603Y210755D01*
X288181Y210515D01*
X288808D01*
X289387Y210755D01*
X289830Y211198D01*
X290070Y211777D01*
Y212403D01*
X289830Y212982D01*
X289387Y213425D01*
X288808Y213665D01*
D02*
G37*
G36*
X524191Y216929D02*
X523211D01*
X522265Y216676D01*
X521416Y216186D01*
X520724Y215493D01*
X520234Y214645D01*
X519980Y213699D01*
Y212719D01*
X520234Y211773D01*
X520724Y210924D01*
X521416Y210232D01*
X522265Y209742D01*
X523211Y209488D01*
X524191D01*
X525137Y209742D01*
X525985Y210232D01*
X526678Y210924D01*
X527168Y211773D01*
X527421Y212719D01*
Y213699D01*
X527168Y214645D01*
X526678Y215493D01*
X525985Y216186D01*
X525137Y216676D01*
X524191Y216929D01*
D02*
G37*
G36*
X479968Y212323D02*
X479087D01*
X478236Y212095D01*
X477473Y211654D01*
X476850Y211031D01*
X476409Y210268D01*
X476181Y209417D01*
Y208536D01*
X476409Y207685D01*
X476850Y206922D01*
X477473Y206298D01*
X478236Y205858D01*
X479087Y205630D01*
X479968D01*
X480819Y205858D01*
X481582Y206298D01*
X482205Y206922D01*
X482646Y207685D01*
X482874Y208536D01*
Y209417D01*
X482646Y210268D01*
X482205Y211031D01*
X481582Y211654D01*
X480819Y212095D01*
X479968Y212323D01*
D02*
G37*
G36*
X370786Y210630D02*
X370159D01*
X369580Y210390D01*
X369137Y209947D01*
X368898Y209368D01*
Y208742D01*
X369137Y208163D01*
X369366Y207934D01*
X369550Y207677D01*
X369366Y207420D01*
X369137Y207191D01*
X368898Y206612D01*
Y205986D01*
X369137Y205407D01*
X369580Y204964D01*
X370159Y204724D01*
X370786D01*
X371364Y204964D01*
X371808Y205407D01*
X372047Y205986D01*
Y206612D01*
X371808Y207191D01*
X371579Y207420D01*
X371395Y207677D01*
X371579Y207934D01*
X371808Y208163D01*
X372047Y208742D01*
Y209368D01*
X371808Y209947D01*
X371364Y210390D01*
X370786Y210630D01*
D02*
G37*
G36*
X513010Y211476D02*
X512030D01*
X511084Y211223D01*
X510235Y210733D01*
X509543Y210040D01*
X509053Y209192D01*
X508799Y208246D01*
Y207266D01*
X509053Y206320D01*
X509543Y205471D01*
X510235Y204779D01*
X511084Y204289D01*
X512030Y204035D01*
X513010D01*
X513956Y204289D01*
X514804Y204779D01*
X515497Y205471D01*
X515987Y206320D01*
X516240Y207266D01*
Y208246D01*
X515987Y209192D01*
X515497Y210040D01*
X514804Y210733D01*
X513956Y211223D01*
X513010Y211476D01*
D02*
G37*
G36*
X317548Y205453D02*
X316922D01*
X316343Y205213D01*
X315900Y204770D01*
X315660Y204191D01*
Y203565D01*
X315900Y202986D01*
X316343Y202543D01*
X316922Y202303D01*
X317548D01*
X318127Y202543D01*
X318570Y202986D01*
X318810Y203565D01*
Y204191D01*
X318570Y204770D01*
X318127Y205213D01*
X317548Y205453D01*
D02*
G37*
G36*
X208187Y203937D02*
X207561D01*
X206982Y203697D01*
X206539Y203254D01*
X206299Y202676D01*
Y202049D01*
X206539Y201470D01*
X206982Y201027D01*
X207561Y200787D01*
X208187D01*
X208766Y201027D01*
X209209Y201470D01*
X209449Y202049D01*
Y202676D01*
X209209Y203254D01*
X208766Y203697D01*
X208187Y203937D01*
D02*
G37*
G36*
X288808Y202248D02*
X288181D01*
X287603Y202008D01*
X287160Y201565D01*
X286920Y200986D01*
Y200360D01*
X287160Y199781D01*
X287603Y199338D01*
X288181Y199098D01*
X288808D01*
X289387Y199338D01*
X289830Y199781D01*
X290070Y200360D01*
Y200986D01*
X289830Y201565D01*
X289387Y202008D01*
X288808Y202248D01*
D02*
G37*
G36*
X524191Y206024D02*
X523211D01*
X522265Y205770D01*
X521416Y205280D01*
X520724Y204588D01*
X520234Y203739D01*
X519980Y202793D01*
Y201813D01*
X520234Y200867D01*
X520724Y200019D01*
X521416Y199326D01*
X522265Y198836D01*
X523211Y198583D01*
X524191D01*
X525137Y198836D01*
X525985Y199326D01*
X526678Y200019D01*
X527168Y200867D01*
X527421Y201813D01*
Y202793D01*
X527168Y203739D01*
X526678Y204588D01*
X525985Y205280D01*
X525137Y205770D01*
X524191Y206024D01*
D02*
G37*
G36*
X208187Y200394D02*
X207561D01*
X206982Y200154D01*
X206539Y199711D01*
X206299Y199132D01*
Y198506D01*
X206539Y197927D01*
X206982Y197484D01*
X207561Y197244D01*
X208187D01*
X208766Y197484D01*
X209209Y197927D01*
X209449Y198506D01*
Y199132D01*
X209209Y199711D01*
X208766Y200154D01*
X208187Y200394D01*
D02*
G37*
G36*
X479968Y202323D02*
X479087D01*
X478236Y202095D01*
X477473Y201654D01*
X476850Y201031D01*
X476409Y200268D01*
X476181Y199417D01*
Y198536D01*
X476409Y197685D01*
X476850Y196922D01*
X477473Y196299D01*
X478236Y195858D01*
X479087Y195630D01*
X479968D01*
X480819Y195858D01*
X481582Y196299D01*
X482205Y196922D01*
X482646Y197685D01*
X482874Y198536D01*
Y199417D01*
X482646Y200268D01*
X482205Y201031D01*
X481582Y201654D01*
X480819Y202095D01*
X479968Y202323D01*
D02*
G37*
G36*
X317548Y197579D02*
X316922D01*
X316343Y197339D01*
X315900Y196896D01*
X315660Y196317D01*
Y195691D01*
X315900Y195112D01*
X316343Y194669D01*
X316922Y194429D01*
X317548D01*
X318127Y194669D01*
X318570Y195112D01*
X318810Y195691D01*
Y196317D01*
X318570Y196896D01*
X318127Y197339D01*
X317548Y197579D01*
D02*
G37*
G36*
X208187Y196850D02*
X207561D01*
X206982Y196611D01*
X206539Y196168D01*
X206299Y195589D01*
Y194962D01*
X206539Y194384D01*
X206982Y193940D01*
X207561Y193701D01*
X208187D01*
X208766Y193940D01*
X209209Y194384D01*
X209449Y194962D01*
Y195589D01*
X209209Y196168D01*
X208766Y196611D01*
X208187Y196850D01*
D02*
G37*
G36*
X513010Y200571D02*
X512030D01*
X511084Y200317D01*
X510235Y199828D01*
X509543Y199135D01*
X509053Y198286D01*
X508799Y197340D01*
Y196361D01*
X509053Y195414D01*
X509543Y194566D01*
X510235Y193873D01*
X511084Y193384D01*
X512030Y193130D01*
X513010D01*
X513956Y193384D01*
X514804Y193873D01*
X515497Y194566D01*
X515987Y195414D01*
X516240Y196361D01*
Y197340D01*
X515987Y198286D01*
X515497Y199135D01*
X514804Y199828D01*
X513956Y200317D01*
X513010Y200571D01*
D02*
G37*
G36*
X208187Y192913D02*
X207561D01*
X206982Y192674D01*
X206539Y192231D01*
X206299Y191652D01*
Y191025D01*
X206539Y190446D01*
X206982Y190004D01*
X207561Y189764D01*
X208187D01*
X208766Y190004D01*
X209209Y190446D01*
X209449Y191025D01*
Y191652D01*
X209209Y192231D01*
X208766Y192674D01*
X208187Y192913D01*
D02*
G37*
G36*
X288808Y190830D02*
X288181D01*
X287603Y190591D01*
X287160Y190148D01*
X286920Y189569D01*
Y188942D01*
X287160Y188364D01*
X287603Y187920D01*
X288181Y187681D01*
X288808D01*
X289387Y187920D01*
X289830Y188364D01*
X290070Y188942D01*
Y189569D01*
X289830Y190148D01*
X289387Y190591D01*
X288808Y190830D01*
D02*
G37*
G36*
X524191Y195118D02*
X523211D01*
X522265Y194865D01*
X521416Y194375D01*
X520724Y193682D01*
X520234Y192834D01*
X519980Y191887D01*
Y190908D01*
X520234Y189962D01*
X520724Y189113D01*
X521416Y188420D01*
X522265Y187931D01*
X523211Y187677D01*
X524191D01*
X525137Y187931D01*
X525985Y188420D01*
X526678Y189113D01*
X527168Y189962D01*
X527421Y190908D01*
Y191887D01*
X527168Y192834D01*
X526678Y193682D01*
X525985Y194375D01*
X525137Y194865D01*
X524191Y195118D01*
D02*
G37*
G36*
X208187Y188976D02*
X207561D01*
X206982Y188737D01*
X206539Y188294D01*
X206299Y187715D01*
Y187088D01*
X206539Y186510D01*
X206982Y186066D01*
X207561Y185827D01*
X208187D01*
X208766Y186066D01*
X209209Y186510D01*
X209449Y187088D01*
Y187715D01*
X209209Y188294D01*
X208766Y188737D01*
X208187Y188976D01*
D02*
G37*
G36*
X479968Y192323D02*
X479087D01*
X478236Y192095D01*
X477473Y191654D01*
X476850Y191031D01*
X476409Y190268D01*
X476181Y189417D01*
Y188536D01*
X476409Y187685D01*
X476850Y186922D01*
X477473Y186299D01*
X478236Y185858D01*
X479087Y185630D01*
X479968D01*
X480819Y185858D01*
X481582Y186299D01*
X482205Y186922D01*
X482646Y187685D01*
X482874Y188536D01*
Y189417D01*
X482646Y190268D01*
X482205Y191031D01*
X481582Y191654D01*
X480819Y192095D01*
X479968Y192323D01*
D02*
G37*
G36*
X208187Y185433D02*
X207561D01*
X206982Y185193D01*
X206539Y184750D01*
X206299Y184171D01*
Y183545D01*
X206539Y182966D01*
X206982Y182523D01*
X207561Y182283D01*
X208187D01*
X208766Y182523D01*
X209209Y182966D01*
X209449Y183545D01*
Y184171D01*
X209209Y184750D01*
X208766Y185193D01*
X208187Y185433D01*
D02*
G37*
G36*
X513010Y189665D02*
X512030D01*
X511084Y189412D01*
X510235Y188922D01*
X509543Y188229D01*
X509053Y187381D01*
X508799Y186435D01*
Y185455D01*
X509053Y184509D01*
X509543Y183660D01*
X510235Y182968D01*
X511084Y182478D01*
X512030Y182224D01*
X513010D01*
X513956Y182478D01*
X514804Y182968D01*
X515497Y183660D01*
X515987Y184509D01*
X516240Y185455D01*
Y186435D01*
X515987Y187381D01*
X515497Y188229D01*
X514804Y188922D01*
X513956Y189412D01*
X513010Y189665D01*
D02*
G37*
G36*
X472361Y180709D02*
X471734D01*
X471155Y180469D01*
X470927Y180240D01*
X470669Y180057D01*
X470412Y180240D01*
X470183Y180469D01*
X469605Y180709D01*
X468978D01*
X468399Y180469D01*
X467956Y180026D01*
X467717Y179447D01*
Y178821D01*
X467956Y178242D01*
X468399Y177799D01*
X468978Y177559D01*
X469605D01*
X470183Y177799D01*
X470412Y178027D01*
X470669Y178211D01*
X470927Y178027D01*
X471155Y177799D01*
X471734Y177559D01*
X472361D01*
X472939Y177799D01*
X473382Y178242D01*
X473622Y178821D01*
Y179447D01*
X473382Y180026D01*
X472939Y180469D01*
X472361Y180709D01*
D02*
G37*
G36*
X333838Y181384D02*
X333211D01*
X332633Y181144D01*
X332190Y180701D01*
X331950Y180123D01*
Y179496D01*
X332190Y178917D01*
X332633Y178474D01*
X333211Y178235D01*
X333838D01*
X334417Y178474D01*
X334860Y178917D01*
X335100Y179496D01*
Y180123D01*
X334860Y180701D01*
X334417Y181144D01*
X333838Y181384D01*
D02*
G37*
G36*
X524191Y184213D02*
X523211D01*
X522265Y183959D01*
X521416Y183469D01*
X520724Y182776D01*
X520234Y181928D01*
X519980Y180982D01*
Y180002D01*
X520234Y179056D01*
X520724Y178208D01*
X521416Y177515D01*
X522265Y177025D01*
X523211Y176772D01*
X524191D01*
X525137Y177025D01*
X525985Y177515D01*
X526678Y178208D01*
X527168Y179056D01*
X527421Y180002D01*
Y180982D01*
X527168Y181928D01*
X526678Y182776D01*
X525985Y183469D01*
X525137Y183959D01*
X524191Y184213D01*
D02*
G37*
G36*
X288771Y179413D02*
X288144D01*
X287566Y179173D01*
X287123Y178730D01*
X286883Y178152D01*
Y177525D01*
X287123Y176946D01*
X287566Y176503D01*
X288144Y176263D01*
X288771D01*
X289350Y176503D01*
X289793Y176946D01*
X290033Y177525D01*
Y178152D01*
X289793Y178730D01*
X289350Y179173D01*
X288771Y179413D01*
D02*
G37*
G36*
X479968Y182323D02*
X479087D01*
X478236Y182095D01*
X477473Y181654D01*
X476850Y181031D01*
X476409Y180268D01*
X476181Y179417D01*
Y178536D01*
X476409Y177685D01*
X476850Y176922D01*
X477473Y176298D01*
X478236Y175858D01*
X479087Y175630D01*
X479968D01*
X480819Y175858D01*
X481582Y176298D01*
X482205Y176922D01*
X482646Y177685D01*
X482874Y178536D01*
Y179417D01*
X482646Y180268D01*
X482205Y181031D01*
X481582Y181654D01*
X480819Y182095D01*
X479968Y182323D01*
D02*
G37*
G36*
X513010Y178760D02*
X512030D01*
X511084Y178506D01*
X510235Y178016D01*
X509543Y177324D01*
X509053Y176475D01*
X508799Y175529D01*
Y174550D01*
X509053Y173603D01*
X509543Y172755D01*
X510235Y172062D01*
X511084Y171572D01*
X512030Y171319D01*
X513010D01*
X513956Y171572D01*
X514804Y172062D01*
X515497Y172755D01*
X515987Y173603D01*
X516240Y174550D01*
Y175529D01*
X515987Y176475D01*
X515497Y177324D01*
X514804Y178016D01*
X513956Y178506D01*
X513010Y178760D01*
D02*
G37*
G36*
X479968Y172323D02*
X479087D01*
X478236Y172095D01*
X477473Y171654D01*
X476850Y171031D01*
X476409Y170268D01*
X476181Y169417D01*
Y168536D01*
X476409Y167685D01*
X476850Y166922D01*
X477473Y166298D01*
X478236Y165858D01*
X479087Y165630D01*
X479968D01*
X480819Y165858D01*
X481582Y166298D01*
X482205Y166922D01*
X482646Y167685D01*
X482874Y168536D01*
Y169417D01*
X482646Y170268D01*
X482205Y171031D01*
X481582Y171654D01*
X480819Y172095D01*
X479968Y172323D01*
D02*
G37*
G36*
X519072Y157421D02*
X517149D01*
X515262Y157046D01*
X513485Y156310D01*
X511886Y155242D01*
X510526Y153882D01*
X509458Y152282D01*
X508722Y150505D01*
X508347Y148619D01*
Y146696D01*
X508722Y144809D01*
X509458Y143033D01*
X510526Y141433D01*
X511886Y140074D01*
X513485Y139005D01*
X515262Y138269D01*
X517149Y137894D01*
X519072D01*
X520958Y138269D01*
X522735Y139005D01*
X524334Y140074D01*
X525694Y141433D01*
X526763Y143033D01*
X527499Y144809D01*
X527874Y146696D01*
Y148619D01*
X527499Y150505D01*
X526763Y152282D01*
X525694Y153882D01*
X524334Y155242D01*
X522735Y156310D01*
X520958Y157046D01*
X519072Y157421D01*
D02*
G37*
G36*
X-34176Y140945D02*
X-35116D01*
X-35984Y140585D01*
X-36648Y139921D01*
X-37008Y139052D01*
Y138113D01*
X-36648Y137245D01*
X-35984Y136580D01*
X-35116Y136221D01*
X-34176D01*
X-33308Y136580D01*
X-32643Y137245D01*
X-32283Y138113D01*
Y139052D01*
X-32643Y139921D01*
X-33308Y140585D01*
X-34176Y140945D01*
D02*
G37*
G36*
X37246Y134964D02*
X36619D01*
X36040Y134724D01*
X35598Y134281D01*
X35358Y133703D01*
Y133076D01*
X35598Y132497D01*
X36040Y132054D01*
X36619Y131815D01*
X37246D01*
X37825Y132054D01*
X38268Y132497D01*
X38507Y133076D01*
Y133703D01*
X38268Y134281D01*
X37825Y134724D01*
X37246Y134964D01*
D02*
G37*
G36*
X116Y127559D02*
X-510D01*
X-1089Y127319D01*
X-1532Y126876D01*
X-1772Y126297D01*
Y125671D01*
X-1532Y125092D01*
X-1089Y124649D01*
X-510Y124409D01*
X116D01*
X695Y124649D01*
X1138Y125092D01*
X1378Y125671D01*
Y126297D01*
X1138Y126876D01*
X695Y127319D01*
X116Y127559D01*
D02*
G37*
G36*
X189290Y120472D02*
X188663D01*
X188084Y120233D01*
X187641Y119790D01*
X187402Y119211D01*
Y118584D01*
X187641Y118006D01*
X188084Y117563D01*
X188663Y117323D01*
X189290D01*
X189868Y117563D01*
X190311Y118006D01*
X190551Y118584D01*
Y119211D01*
X190311Y119790D01*
X189868Y120233D01*
X189290Y120472D01*
D02*
G37*
G36*
X369605Y119291D02*
X368978D01*
X368399Y119052D01*
X367956Y118609D01*
X367717Y118030D01*
Y117403D01*
X367956Y116824D01*
X368185Y116596D01*
X368369Y116339D01*
X368185Y116081D01*
X367956Y115853D01*
X367717Y115274D01*
Y114647D01*
X367956Y114069D01*
X368399Y113626D01*
X368978Y113386D01*
X369605D01*
X370183Y113626D01*
X370626Y114069D01*
X370866Y114647D01*
Y115274D01*
X370626Y115853D01*
X370398Y116081D01*
X370214Y116339D01*
X370398Y116596D01*
X370626Y116824D01*
X370866Y117403D01*
Y118030D01*
X370626Y118609D01*
X370183Y119052D01*
X369605Y119291D01*
D02*
G37*
G36*
X318237Y115295D02*
X317611D01*
X317032Y115056D01*
X316589Y114612D01*
X316349Y114034D01*
Y113407D01*
X316589Y112828D01*
X317032Y112385D01*
X317611Y112146D01*
X318237D01*
X318816Y112385D01*
X319259Y112828D01*
X319499Y113407D01*
Y114034D01*
X319259Y114612D01*
X318816Y115056D01*
X318237Y115295D01*
D02*
G37*
G36*
X482480Y117913D02*
X475787D01*
Y111221D01*
X482480D01*
Y117913D01*
D02*
G37*
G36*
X519072Y129429D02*
X517149D01*
X515262Y129054D01*
X513485Y128318D01*
X511886Y127249D01*
X510526Y125889D01*
X509458Y124290D01*
X508722Y122513D01*
X508347Y120627D01*
Y118704D01*
X508722Y116817D01*
X509458Y115041D01*
X510526Y113441D01*
X511886Y112081D01*
X513485Y111013D01*
X515262Y110277D01*
X517149Y109902D01*
X519072D01*
X520958Y110277D01*
X522735Y111013D01*
X524334Y112081D01*
X525694Y113441D01*
X526763Y115041D01*
X527499Y116817D01*
X527874Y118704D01*
Y120627D01*
X527499Y122513D01*
X526763Y124290D01*
X525694Y125889D01*
X524334Y127249D01*
X522735Y128318D01*
X520958Y129054D01*
X519072Y129429D01*
D02*
G37*
G36*
X288414Y111303D02*
X287788D01*
X287209Y111063D01*
X286766Y110620D01*
X286526Y110041D01*
Y109415D01*
X286766Y108836D01*
X287209Y108393D01*
X287788Y108153D01*
X288414D01*
X288993Y108393D01*
X289436Y108836D01*
X289676Y109415D01*
Y110041D01*
X289436Y110620D01*
X288993Y111063D01*
X288414Y111303D01*
D02*
G37*
G36*
X189290Y109843D02*
X188663D01*
X188084Y109603D01*
X187641Y109160D01*
X187402Y108581D01*
Y107955D01*
X187641Y107376D01*
X188084Y106933D01*
X188663Y106693D01*
X189290D01*
X189868Y106933D01*
X190311Y107376D01*
X190551Y107955D01*
Y108581D01*
X190311Y109160D01*
X189868Y109603D01*
X189290Y109843D01*
D02*
G37*
G36*
X317622Y106908D02*
X316995D01*
X316417Y106668D01*
X315974Y106225D01*
X315734Y105647D01*
Y105020D01*
X315974Y104441D01*
X316417Y103998D01*
X316995Y103758D01*
X317622D01*
X318201Y103998D01*
X318644Y104441D01*
X318883Y105020D01*
Y105647D01*
X318644Y106225D01*
X318201Y106668D01*
X317622Y106908D01*
D02*
G37*
G36*
X479574Y107913D02*
X478693D01*
X477842Y107685D01*
X477079Y107245D01*
X476456Y106622D01*
X476016Y105859D01*
X475787Y105008D01*
Y104126D01*
X476016Y103275D01*
X476456Y102512D01*
X477079Y101889D01*
X477842Y101449D01*
X478693Y101221D01*
X479574D01*
X480426Y101449D01*
X481189Y101889D01*
X481812Y102512D01*
X482252Y103275D01*
X482480Y104126D01*
Y105008D01*
X482252Y105859D01*
X481812Y106622D01*
X481189Y107245D01*
X480426Y107685D01*
X479574Y107913D01*
D02*
G37*
G36*
X288414Y99885D02*
X287788D01*
X287209Y99646D01*
X286766Y99203D01*
X286526Y98624D01*
Y97997D01*
X286766Y97419D01*
X287209Y96976D01*
X287788Y96736D01*
X288414D01*
X288993Y96976D01*
X289436Y97419D01*
X289676Y97997D01*
Y98624D01*
X289436Y99203D01*
X288993Y99646D01*
X288414Y99885D01*
D02*
G37*
G36*
X479574Y97913D02*
X478693D01*
X477842Y97685D01*
X477079Y97245D01*
X476456Y96622D01*
X476016Y95859D01*
X475787Y95007D01*
Y94126D01*
X476016Y93275D01*
X476456Y92512D01*
X477079Y91889D01*
X477842Y91448D01*
X478693Y91220D01*
X479574D01*
X480426Y91448D01*
X481189Y91889D01*
X481812Y92512D01*
X482252Y93275D01*
X482480Y94126D01*
Y95007D01*
X482252Y95859D01*
X481812Y96622D01*
X481189Y97245D01*
X480426Y97685D01*
X479574Y97913D01*
D02*
G37*
G36*
X5038Y93307D02*
X4411D01*
X3832Y93067D01*
X3389Y92624D01*
X3150Y92045D01*
Y91419D01*
X3389Y90840D01*
X3832Y90397D01*
X4411Y90158D01*
X5038D01*
X5616Y90397D01*
X6059Y90840D01*
X6299Y91419D01*
Y92045D01*
X6059Y92624D01*
X5616Y93067D01*
X5038Y93307D01*
D02*
G37*
G36*
X516240Y96004D02*
X508799D01*
Y88563D01*
X516240D01*
Y96004D01*
D02*
G37*
G36*
X333395Y90492D02*
X332768D01*
X332189Y90252D01*
X331746Y89809D01*
X331507Y89231D01*
Y88604D01*
X331746Y88025D01*
X332189Y87582D01*
X332768Y87343D01*
X333395D01*
X333974Y87582D01*
X334417Y88025D01*
X334656Y88604D01*
Y89231D01*
X334417Y89809D01*
X333974Y90252D01*
X333395Y90492D01*
D02*
G37*
G36*
X288414Y89256D02*
X287788D01*
X287209Y89016D01*
X286766Y88573D01*
X286526Y87994D01*
Y87367D01*
X286766Y86789D01*
X287209Y86346D01*
X287788Y86106D01*
X288414D01*
X288993Y86346D01*
X289436Y86789D01*
X289676Y87367D01*
Y87994D01*
X289436Y88573D01*
X288993Y89016D01*
X288414Y89256D01*
D02*
G37*
G36*
X524191Y90551D02*
X523211D01*
X522265Y90298D01*
X521416Y89808D01*
X520724Y89115D01*
X520234Y88267D01*
X519980Y87321D01*
Y86341D01*
X520234Y85395D01*
X520724Y84546D01*
X521416Y83854D01*
X522265Y83364D01*
X523211Y83110D01*
X524191D01*
X525137Y83364D01*
X525985Y83854D01*
X526678Y84546D01*
X527168Y85395D01*
X527421Y86341D01*
Y87321D01*
X527168Y88267D01*
X526678Y89115D01*
X525985Y89808D01*
X525137Y90298D01*
X524191Y90551D01*
D02*
G37*
G36*
X479574Y87913D02*
X478693D01*
X477842Y87685D01*
X477079Y87245D01*
X476456Y86622D01*
X476016Y85859D01*
X475787Y85008D01*
Y84126D01*
X476016Y83275D01*
X476456Y82512D01*
X477079Y81889D01*
X477842Y81449D01*
X478693Y81221D01*
X479574D01*
X480426Y81449D01*
X481189Y81889D01*
X481812Y82512D01*
X482252Y83275D01*
X482480Y84126D01*
Y85008D01*
X482252Y85859D01*
X481812Y86622D01*
X481189Y87245D01*
X480426Y87685D01*
X479574Y87913D01*
D02*
G37*
G36*
X371179Y86221D02*
X370553D01*
X369974Y85981D01*
X369531Y85538D01*
X369291Y84959D01*
Y84332D01*
X369531Y83754D01*
X369760Y83525D01*
X369943Y83268D01*
X369760Y83011D01*
X369531Y82782D01*
X369291Y82203D01*
Y81577D01*
X369531Y80998D01*
X369974Y80555D01*
X370553Y80315D01*
X371179D01*
X371758Y80555D01*
X372201Y80998D01*
X372441Y81577D01*
Y82203D01*
X372201Y82782D01*
X371972Y83011D01*
X371789Y83268D01*
X371972Y83525D01*
X372201Y83754D01*
X372441Y84332D01*
Y84959D01*
X372201Y85538D01*
X371758Y85981D01*
X371179Y86221D01*
D02*
G37*
G36*
X317155Y81043D02*
X316528D01*
X315949Y80804D01*
X315506Y80361D01*
X315266Y79782D01*
Y79155D01*
X315506Y78576D01*
X315949Y78133D01*
X316528Y77894D01*
X317155D01*
X317733Y78133D01*
X318176Y78576D01*
X318416Y79155D01*
Y79782D01*
X318176Y80361D01*
X317733Y80804D01*
X317155Y81043D01*
D02*
G37*
G36*
X513010Y85098D02*
X512030D01*
X511084Y84845D01*
X510235Y84355D01*
X509543Y83662D01*
X509053Y82814D01*
X508799Y81868D01*
Y80888D01*
X509053Y79942D01*
X509543Y79093D01*
X510235Y78401D01*
X511084Y77911D01*
X512030Y77658D01*
X513010D01*
X513956Y77911D01*
X514804Y78401D01*
X515497Y79093D01*
X515987Y79942D01*
X516240Y80888D01*
Y81868D01*
X515987Y82814D01*
X515497Y83662D01*
X514804Y84355D01*
X513956Y84845D01*
X513010Y85098D01*
D02*
G37*
G36*
X207794Y79528D02*
X207167D01*
X206588Y79288D01*
X206145Y78845D01*
X205906Y78266D01*
Y77640D01*
X206145Y77061D01*
X206588Y76618D01*
X207167Y76378D01*
X207794D01*
X208372Y76618D01*
X208815Y77061D01*
X209055Y77640D01*
Y78266D01*
X208815Y78845D01*
X208372Y79288D01*
X207794Y79528D01*
D02*
G37*
G36*
X288414Y77838D02*
X287788D01*
X287209Y77599D01*
X286766Y77156D01*
X286526Y76577D01*
Y75950D01*
X286766Y75371D01*
X287209Y74928D01*
X287788Y74689D01*
X288414D01*
X288993Y74928D01*
X289436Y75371D01*
X289676Y75950D01*
Y76577D01*
X289436Y77156D01*
X288993Y77599D01*
X288414Y77838D01*
D02*
G37*
G36*
X207794Y75984D02*
X207167D01*
X206588Y75744D01*
X206145Y75301D01*
X205906Y74723D01*
Y74096D01*
X206145Y73517D01*
X206588Y73074D01*
X207167Y72835D01*
X207794D01*
X208372Y73074D01*
X208815Y73517D01*
X209055Y74096D01*
Y74723D01*
X208815Y75301D01*
X208372Y75744D01*
X207794Y75984D01*
D02*
G37*
G36*
X524191Y79646D02*
X523211D01*
X522265Y79392D01*
X521416Y78902D01*
X520724Y78210D01*
X520234Y77361D01*
X519980Y76415D01*
Y75435D01*
X520234Y74489D01*
X520724Y73641D01*
X521416Y72948D01*
X522265Y72458D01*
X523211Y72205D01*
X524191D01*
X525137Y72458D01*
X525985Y72948D01*
X526678Y73641D01*
X527168Y74489D01*
X527421Y75435D01*
Y76415D01*
X527168Y77361D01*
X526678Y78210D01*
X525985Y78902D01*
X525137Y79392D01*
X524191Y79646D01*
D02*
G37*
G36*
X479574Y77913D02*
X478693D01*
X477842Y77685D01*
X477079Y77245D01*
X476456Y76622D01*
X476016Y75859D01*
X475787Y75007D01*
Y74126D01*
X476016Y73275D01*
X476456Y72512D01*
X477079Y71889D01*
X477842Y71448D01*
X478693Y71220D01*
X479574D01*
X480426Y71448D01*
X481189Y71889D01*
X481812Y72512D01*
X482252Y73275D01*
X482480Y74126D01*
Y75007D01*
X482252Y75859D01*
X481812Y76622D01*
X481189Y77245D01*
X480426Y77685D01*
X479574Y77913D01*
D02*
G37*
G36*
X317155Y73169D02*
X316528D01*
X315949Y72930D01*
X315506Y72487D01*
X315266Y71908D01*
Y71281D01*
X315506Y70702D01*
X315949Y70259D01*
X316528Y70020D01*
X317155D01*
X317733Y70259D01*
X318176Y70702D01*
X318416Y71281D01*
Y71908D01*
X318176Y72487D01*
X317733Y72930D01*
X317155Y73169D01*
D02*
G37*
G36*
X207794Y72441D02*
X207167D01*
X206588Y72201D01*
X206145Y71758D01*
X205906Y71179D01*
Y70553D01*
X206145Y69974D01*
X206588Y69531D01*
X207167Y69291D01*
X207794D01*
X208372Y69531D01*
X208815Y69974D01*
X209055Y70553D01*
Y71179D01*
X208815Y71758D01*
X208372Y72201D01*
X207794Y72441D01*
D02*
G37*
G36*
X513010Y74193D02*
X512030D01*
X511084Y73939D01*
X510235Y73450D01*
X509543Y72757D01*
X509053Y71908D01*
X508799Y70962D01*
Y69983D01*
X509053Y69036D01*
X509543Y68188D01*
X510235Y67495D01*
X511084Y67005D01*
X512030Y66752D01*
X513010D01*
X513956Y67005D01*
X514804Y67495D01*
X515497Y68188D01*
X515987Y69036D01*
X516240Y69983D01*
Y70962D01*
X515987Y71908D01*
X515497Y72757D01*
X514804Y73450D01*
X513956Y73939D01*
X513010Y74193D01*
D02*
G37*
G36*
X207794Y68504D02*
X207167D01*
X206588Y68264D01*
X206145Y67821D01*
X205906Y67242D01*
Y66616D01*
X206145Y66037D01*
X206588Y65594D01*
X207167Y65354D01*
X207794D01*
X208372Y65594D01*
X208815Y66037D01*
X209055Y66616D01*
Y67242D01*
X208815Y67821D01*
X208372Y68264D01*
X207794Y68504D01*
D02*
G37*
G36*
X288414Y66421D02*
X287788D01*
X287209Y66181D01*
X286766Y65738D01*
X286526Y65159D01*
Y64533D01*
X286766Y63954D01*
X287209Y63511D01*
X287788Y63271D01*
X288414D01*
X288993Y63511D01*
X289436Y63954D01*
X289676Y64533D01*
Y65159D01*
X289436Y65738D01*
X288993Y66181D01*
X288414Y66421D01*
D02*
G37*
G36*
X207794Y64567D02*
X207167D01*
X206588Y64327D01*
X206145Y63884D01*
X205906Y63305D01*
Y62679D01*
X206145Y62100D01*
X206588Y61657D01*
X207167Y61417D01*
X207794D01*
X208372Y61657D01*
X208815Y62100D01*
X209055Y62679D01*
Y63305D01*
X208815Y63884D01*
X208372Y64327D01*
X207794Y64567D01*
D02*
G37*
G36*
X524191Y68740D02*
X523211D01*
X522265Y68487D01*
X521416Y67997D01*
X520724Y67304D01*
X520234Y66456D01*
X519980Y65509D01*
Y64530D01*
X520234Y63584D01*
X520724Y62735D01*
X521416Y62043D01*
X522265Y61553D01*
X523211Y61299D01*
X524191D01*
X525137Y61553D01*
X525985Y62043D01*
X526678Y62735D01*
X527168Y63584D01*
X527421Y64530D01*
Y65509D01*
X527168Y66456D01*
X526678Y67304D01*
X525985Y67997D01*
X525137Y68487D01*
X524191Y68740D01*
D02*
G37*
G36*
X479574Y67913D02*
X478693D01*
X477842Y67685D01*
X477079Y67245D01*
X476456Y66622D01*
X476016Y65859D01*
X475787Y65008D01*
Y64126D01*
X476016Y63275D01*
X476456Y62512D01*
X477079Y61889D01*
X477842Y61449D01*
X478693Y61221D01*
X479574D01*
X480426Y61449D01*
X481189Y61889D01*
X481812Y62512D01*
X482252Y63275D01*
X482480Y64126D01*
Y65008D01*
X482252Y65859D01*
X481812Y66622D01*
X481189Y67245D01*
X480426Y67685D01*
X479574Y67913D01*
D02*
G37*
G36*
X207794Y61024D02*
X207167D01*
X206588Y60784D01*
X206145Y60341D01*
X205906Y59762D01*
Y59136D01*
X206145Y58557D01*
X206588Y58114D01*
X207167Y57874D01*
X207794D01*
X208372Y58114D01*
X208815Y58557D01*
X209055Y59136D01*
Y59762D01*
X208815Y60341D01*
X208372Y60784D01*
X207794Y61024D01*
D02*
G37*
G36*
X513010Y63287D02*
X512030D01*
X511084Y63034D01*
X510235Y62544D01*
X509543Y61851D01*
X509053Y61003D01*
X508799Y60057D01*
Y59077D01*
X509053Y58131D01*
X509543Y57283D01*
X510235Y56590D01*
X511084Y56100D01*
X512030Y55847D01*
X513010D01*
X513956Y56100D01*
X514804Y56590D01*
X515497Y57283D01*
X515987Y58131D01*
X516240Y59077D01*
Y60057D01*
X515987Y61003D01*
X515497Y61851D01*
X514804Y62544D01*
X513956Y63034D01*
X513010Y63287D01*
D02*
G37*
G36*
X472361Y56299D02*
X471734D01*
X471155Y56059D01*
X470927Y55831D01*
X470669Y55647D01*
X470412Y55831D01*
X470183Y56059D01*
X469605Y56299D01*
X468978D01*
X468399Y56059D01*
X467956Y55616D01*
X467717Y55038D01*
Y54411D01*
X467956Y53832D01*
X468399Y53389D01*
X468978Y53150D01*
X469605D01*
X470183Y53389D01*
X470412Y53618D01*
X470669Y53802D01*
X470927Y53618D01*
X471155Y53389D01*
X471734Y53150D01*
X472361D01*
X472939Y53389D01*
X473382Y53832D01*
X473622Y54411D01*
Y55038D01*
X473382Y55616D01*
X472939Y56059D01*
X472361Y56299D01*
D02*
G37*
G36*
X333444Y56975D02*
X332818D01*
X332239Y56735D01*
X331796Y56292D01*
X331556Y55713D01*
Y55087D01*
X331796Y54508D01*
X332239Y54065D01*
X332818Y53825D01*
X333444D01*
X334023Y54065D01*
X334466Y54508D01*
X334706Y55087D01*
Y55713D01*
X334466Y56292D01*
X334023Y56735D01*
X333444Y56975D01*
D02*
G37*
G36*
X288377Y55004D02*
X287751D01*
X287172Y54764D01*
X286729Y54321D01*
X286489Y53742D01*
Y53115D01*
X286729Y52537D01*
X287172Y52094D01*
X287751Y51854D01*
X288377D01*
X288956Y52094D01*
X289399Y52537D01*
X289639Y53115D01*
Y53742D01*
X289399Y54321D01*
X288956Y54764D01*
X288377Y55004D01*
D02*
G37*
G36*
X479574Y57913D02*
X478693D01*
X477842Y57685D01*
X477079Y57245D01*
X476456Y56622D01*
X476016Y55859D01*
X475787Y55007D01*
Y54126D01*
X476016Y53275D01*
X476456Y52512D01*
X477079Y51889D01*
X477842Y51449D01*
X478693Y51221D01*
X479574D01*
X480426Y51449D01*
X481189Y51889D01*
X481812Y52512D01*
X482252Y53275D01*
X482480Y54126D01*
Y55007D01*
X482252Y55859D01*
X481812Y56622D01*
X481189Y57245D01*
X480426Y57685D01*
X479574Y57913D01*
D02*
G37*
G36*
X524191Y57835D02*
X523211D01*
X522265Y57581D01*
X521416Y57091D01*
X520724Y56399D01*
X520234Y55550D01*
X519980Y54604D01*
Y53624D01*
X520234Y52678D01*
X520724Y51830D01*
X521416Y51137D01*
X522265Y50647D01*
X523211Y50394D01*
X524191D01*
X525137Y50647D01*
X525985Y51137D01*
X526678Y51830D01*
X527168Y52678D01*
X527421Y53624D01*
Y54604D01*
X527168Y55550D01*
X526678Y56399D01*
X525985Y57091D01*
X525137Y57581D01*
X524191Y57835D01*
D02*
G37*
G36*
X513010Y52382D02*
X512030D01*
X511084Y52128D01*
X510235Y51639D01*
X509543Y50946D01*
X509053Y50098D01*
X508799Y49151D01*
Y48172D01*
X509053Y47225D01*
X509543Y46377D01*
X510235Y45684D01*
X511084Y45195D01*
X512030Y44941D01*
X513010D01*
X513956Y45195D01*
X514804Y45684D01*
X515497Y46377D01*
X515987Y47225D01*
X516240Y48172D01*
Y49151D01*
X515987Y50098D01*
X515497Y50946D01*
X514804Y51639D01*
X513956Y52128D01*
X513010Y52382D01*
D02*
G37*
G36*
X479574Y47913D02*
X478693D01*
X477842Y47685D01*
X477079Y47245D01*
X476456Y46622D01*
X476016Y45859D01*
X475787Y45008D01*
Y44126D01*
X476016Y43275D01*
X476456Y42512D01*
X477079Y41889D01*
X477842Y41449D01*
X478693Y41221D01*
X479574D01*
X480426Y41449D01*
X481189Y41889D01*
X481812Y42512D01*
X482252Y43275D01*
X482480Y44126D01*
Y45008D01*
X482252Y45859D01*
X481812Y46622D01*
X481189Y47245D01*
X480426Y47685D01*
X479574Y47913D01*
D02*
G37*
G36*
X519072Y31043D02*
X517149D01*
X515262Y30668D01*
X513485Y29932D01*
X511886Y28863D01*
X510526Y27504D01*
X509458Y25904D01*
X508722Y24127D01*
X508347Y22241D01*
Y20318D01*
X508722Y18431D01*
X509458Y16655D01*
X510526Y15055D01*
X511886Y13695D01*
X513485Y12627D01*
X515262Y11891D01*
X517149Y11516D01*
X519072D01*
X520958Y11891D01*
X522735Y12627D01*
X524334Y13695D01*
X525694Y15055D01*
X526763Y16655D01*
X527499Y18431D01*
X527874Y20318D01*
Y22241D01*
X527499Y24127D01*
X526763Y25904D01*
X525694Y27504D01*
X524334Y28863D01*
X522735Y29932D01*
X520958Y30668D01*
X519072Y31043D01*
D02*
G37*
%LPD*%
D11*
X-24016Y240158D02*
X135827D01*
X-35827Y228346D02*
X-24016Y240158D01*
X-40586Y223587D02*
X-35827Y228346D01*
Y228346D01*
X-39746Y204707D02*
X-36220Y201181D01*
X-48959Y204707D02*
X-39746D01*
X-40140Y211006D02*
X-36220Y207087D01*
X-48959Y211006D02*
X-40140D01*
X-48959Y217305D02*
X-39746D01*
X-36220Y213779D01*
X-48976Y210988D02*
X-48959Y211006D01*
X-48976Y204689D02*
X-48959Y204707D01*
X-48976Y217287D02*
X-48959Y217305D01*
X-48976Y223587D02*
X-40586D01*
X199028Y329528D02*
X210630D01*
X200496Y325984D02*
X210630D01*
X201964Y322441D02*
X210630D01*
X203594Y318504D02*
X210630D01*
X205225Y314567D02*
X210630D01*
X206693Y311024D02*
X210630D01*
X127375Y257874D02*
X199028Y329528D01*
X135827Y240158D02*
X206693Y311024D01*
X134359Y243701D02*
X205225Y314567D01*
X129630Y255118D02*
X200496Y325984D01*
X131098Y251575D02*
X201964Y322441D01*
X132728Y247638D02*
X203594Y318504D01*
X-3937Y115834D02*
X-2756Y114653D01*
X-3937Y115834D02*
Y137795D01*
X-2756Y114567D02*
Y114653D01*
X-39870Y236185D02*
X-36220Y239835D01*
X-48976Y236185D02*
X-48959Y236203D01*
X-36220Y239835D02*
X-28417Y247638D01*
X-36220Y233535D02*
X-26055Y243701D01*
X-39870Y229886D02*
X-36220Y233535D01*
Y246063D02*
X-30709Y251575D01*
X-39799Y242484D02*
X-36220Y246063D01*
X-48976Y242484D02*
X-39799D01*
X-39799Y248783D02*
X-36220Y252362D01*
X-33465Y255118D01*
X-28417Y247638D02*
X132728Y247638D01*
X-26055Y243701D02*
X134359Y243701D01*
X-36220Y257874D02*
X127375D01*
X-30709Y251575D02*
X131098Y251575D01*
X-33465Y255118D02*
X129630Y255118D01*
X-29134Y142126D02*
X-12992D01*
X-7874Y137008D01*
X-11024Y144882D02*
X-3937Y137795D01*
X-7874Y111417D02*
Y137008D01*
X-47244Y144882D02*
X-11024D01*
X-48976Y129098D02*
X-27988D01*
X-27953Y129134D01*
X-48976Y255083D02*
X-39012D01*
X-36220Y257874D01*
X-48976Y248783D02*
X-48959Y248801D01*
X-48976Y229886D02*
X-48959Y229904D01*
X-48976Y242484D02*
X-48959Y242502D01*
X-48976Y229886D02*
X-39870D01*
X-48976Y236185D02*
X-39870D01*
X-48976Y248783D02*
X-39799D01*
D29*
X-48976Y113386D02*
D03*
Y116535D02*
D03*
Y119685D02*
D03*
Y122835D02*
D03*
Y125984D02*
D03*
Y129134D02*
D03*
Y132283D02*
D03*
Y135433D02*
D03*
Y138583D02*
D03*
Y141732D02*
D03*
Y144882D02*
D03*
Y148031D02*
D03*
Y151181D02*
D03*
Y154331D02*
D03*
Y157480D02*
D03*
Y160630D02*
D03*
Y163779D02*
D03*
Y166929D02*
D03*
Y170079D02*
D03*
Y173228D02*
D03*
Y176378D02*
D03*
Y179528D02*
D03*
Y182677D02*
D03*
Y198425D02*
D03*
Y201575D02*
D03*
Y204725D02*
D03*
Y207874D02*
D03*
Y211024D02*
D03*
Y214173D02*
D03*
Y217323D02*
D03*
Y220472D02*
D03*
Y223622D02*
D03*
Y226772D02*
D03*
Y229921D02*
D03*
Y233071D02*
D03*
Y236220D02*
D03*
Y239370D02*
D03*
Y242520D02*
D03*
Y245669D02*
D03*
Y248819D02*
D03*
Y251968D02*
D03*
Y255118D02*
D03*
Y258268D02*
D03*
Y261417D02*
D03*
Y264567D02*
D03*
Y267716D02*
D03*
Y270866D02*
D03*
Y274016D02*
D03*
Y277166D02*
D03*
Y280315D02*
D03*
D50*
X-48976Y261382D02*
X-31478D01*
X-48959Y273998D02*
X-31496D01*
X-31478Y261436D02*
X-31469Y261426D01*
X-48976Y273980D02*
X-48959Y273998D01*
X-41087Y116500D02*
X-40339Y117247D01*
X-40233D01*
X-48976Y116500D02*
X-41087D01*
X-35827Y114961D02*
Y118504D01*
X-48938Y113389D02*
X-37398D01*
X-35827Y114961D01*
X-48976Y267681D02*
X-25233D01*
X-25197Y267717D01*
D51*
X512520Y48661D02*
D03*
X523701Y54114D02*
D03*
X512520Y59567D02*
D03*
X523701Y65020D02*
D03*
X512520Y70473D02*
D03*
X523701Y75925D02*
D03*
X512520Y81378D02*
D03*
X523701Y86831D02*
D03*
X512520Y175039D02*
D03*
X523701Y180492D02*
D03*
X512520Y185945D02*
D03*
X523701Y191398D02*
D03*
X512520Y196850D02*
D03*
X523701Y202303D02*
D03*
X512520Y207756D02*
D03*
X523701Y213209D02*
D03*
Y339587D02*
D03*
X512520Y334134D02*
D03*
X523701Y328681D02*
D03*
X512520Y323228D02*
D03*
X523701Y317776D02*
D03*
X512520Y312323D02*
D03*
X523701Y306870D02*
D03*
X512520Y301417D02*
D03*
D52*
Y92283D02*
D03*
Y218661D02*
D03*
Y345039D02*
D03*
D53*
X518110Y119665D02*
D03*
Y21280D02*
D03*
Y246043D02*
D03*
Y147658D02*
D03*
Y274035D02*
D03*
Y372421D02*
D03*
D54*
X479134Y44567D02*
D03*
Y54567D02*
D03*
Y64567D02*
D03*
Y74567D02*
D03*
Y84567D02*
D03*
Y94567D02*
D03*
Y104567D02*
D03*
X479528Y168976D02*
D03*
Y178976D02*
D03*
Y188976D02*
D03*
Y198976D02*
D03*
Y208976D02*
D03*
Y218976D02*
D03*
Y228976D02*
D03*
X481102Y355906D02*
D03*
Y345905D02*
D03*
Y335906D02*
D03*
Y325905D02*
D03*
Y315905D02*
D03*
Y305906D02*
D03*
Y295905D02*
D03*
D55*
X479134Y114567D02*
D03*
X479528Y238976D02*
D03*
X481102Y365905D02*
D03*
D56*
X-41339Y226772D02*
D03*
D57*
X317323Y337008D02*
D03*
X374410Y214173D02*
D03*
X378740Y218504D02*
D03*
X397638Y88189D02*
D03*
X398819Y80315D02*
D03*
X-197Y125984D02*
D03*
X68110Y330315D02*
D03*
X380315Y312992D02*
D03*
X387008Y334252D02*
D03*
X398819Y53937D02*
D03*
X387402Y53150D02*
D03*
X373228Y56693D02*
D03*
X378740Y60236D02*
D03*
X385039Y83071D02*
D03*
X374410Y89370D02*
D03*
X379134Y94095D02*
D03*
X322835Y50394D02*
D03*
X314567Y52756D02*
D03*
X322441Y84252D02*
D03*
X315354Y87008D02*
D03*
X239370Y55905D02*
D03*
X245669Y59449D02*
D03*
X261024Y92126D02*
D03*
X242126Y89370D02*
D03*
X216142Y94488D02*
D03*
X209055Y96850D02*
D03*
X399213Y178347D02*
D03*
X385433Y207480D02*
D03*
X387795Y177953D02*
D03*
X403543Y201575D02*
D03*
X399213Y205118D02*
D03*
X402362Y216142D02*
D03*
X398425Y212205D02*
D03*
X387795Y211811D02*
D03*
X402362Y234646D02*
D03*
X398031Y238189D02*
D03*
X384252Y240551D02*
D03*
X310236Y180709D02*
D03*
X323228Y174803D02*
D03*
X314961Y177165D02*
D03*
X310236Y215748D02*
D03*
X323228Y208661D02*
D03*
X315748Y211024D02*
D03*
X241339Y307087D02*
D03*
X247244Y311024D02*
D03*
X240551Y180315D02*
D03*
X246063Y183858D02*
D03*
X261417Y216929D02*
D03*
X256299Y220866D02*
D03*
X242520Y213386D02*
D03*
X213386Y226772D02*
D03*
X209055Y221260D02*
D03*
X28346Y98819D02*
D03*
X31496Y103937D02*
D03*
X-40157Y132283D02*
D03*
Y141732D02*
D03*
Y151181D02*
D03*
X380315Y345669D02*
D03*
X375197Y340945D02*
D03*
Y307480D02*
D03*
X400787Y305512D02*
D03*
X324803Y335827D02*
D03*
X324410Y301969D02*
D03*
X389764Y305118D02*
D03*
X400787Y331890D02*
D03*
X399606Y338976D02*
D03*
X389370Y338583D02*
D03*
X399606Y364961D02*
D03*
X385433Y367323D02*
D03*
X316535Y303150D02*
D03*
X258268Y348031D02*
D03*
X244094Y340551D02*
D03*
X210630Y348031D02*
D03*
X214173Y350787D02*
D03*
X-40551Y279134D02*
D03*
Y270866D02*
D03*
Y258268D02*
D03*
Y264567D02*
D03*
X-40945Y251969D02*
D03*
Y245669D02*
D03*
Y239370D02*
D03*
Y233071D02*
D03*
X-40551Y200394D02*
D03*
X-40945Y207874D02*
D03*
Y214173D02*
D03*
X-40157Y182677D02*
D03*
Y176378D02*
D03*
Y170079D02*
D03*
Y163779D02*
D03*
Y157480D02*
D03*
X469291Y179134D02*
D03*
X472047D02*
D03*
X370472Y206299D02*
D03*
Y209055D02*
D03*
X369291Y242126D02*
D03*
Y239370D02*
D03*
X190088Y359467D02*
D03*
X188976Y118898D02*
D03*
Y108268D02*
D03*
Y242913D02*
D03*
Y232283D02*
D03*
X190945Y369685D02*
D03*
X369291Y117717D02*
D03*
Y114961D02*
D03*
X-35827Y228346D02*
D03*
X-36220Y201181D02*
D03*
Y207087D02*
D03*
Y213779D02*
D03*
X472047Y54724D02*
D03*
X469291D02*
D03*
X370866Y81890D02*
D03*
Y84646D02*
D03*
X218504Y346063D02*
D03*
X203937Y348031D02*
D03*
X244094Y350394D02*
D03*
X250000Y348031D02*
D03*
X248425Y220866D02*
D03*
X272441Y233858D02*
D03*
X242520Y223622D02*
D03*
X202362Y221260D02*
D03*
X216535Y218504D02*
D03*
X272441Y222835D02*
D03*
Y212205D02*
D03*
X272047Y200787D02*
D03*
X272441Y188976D02*
D03*
Y177953D02*
D03*
X472047Y231890D02*
D03*
X272047Y53543D02*
D03*
X272441Y64567D02*
D03*
X272047Y76378D02*
D03*
X272441Y87795D02*
D03*
Y98032D02*
D03*
X213386Y103150D02*
D03*
X201575Y96850D02*
D03*
X242126Y98819D02*
D03*
X272441Y109843D02*
D03*
X248031Y96850D02*
D03*
X256299D02*
D03*
X207480Y66929D02*
D03*
Y62992D02*
D03*
Y59449D02*
D03*
Y70866D02*
D03*
Y74410D02*
D03*
Y77953D02*
D03*
X207874Y191339D02*
D03*
Y187402D02*
D03*
Y183858D02*
D03*
Y195276D02*
D03*
Y198819D02*
D03*
Y202362D02*
D03*
X316841Y71595D02*
D03*
X288064Y53429D02*
D03*
X333131Y55400D02*
D03*
X288101Y109728D02*
D03*
X317924Y113721D02*
D03*
X288101Y98311D02*
D03*
X333081Y88917D02*
D03*
X288101Y87681D02*
D03*
X317309Y105333D02*
D03*
X288101Y76263D02*
D03*
X316841Y79469D02*
D03*
X288101Y64846D02*
D03*
X470866Y33071D02*
D03*
X470831Y25232D02*
D03*
X471654Y107087D02*
D03*
X470831Y16570D02*
D03*
X471654Y110236D02*
D03*
Y87008D02*
D03*
Y141732D02*
D03*
Y91339D02*
D03*
X317235Y196004D02*
D03*
X288458Y177838D02*
D03*
X333525Y179809D02*
D03*
X288495Y189256D02*
D03*
X317235Y203878D02*
D03*
X288495Y200673D02*
D03*
X317702Y229743D02*
D03*
X288495Y212090D02*
D03*
X333475Y213327D02*
D03*
X288495Y222720D02*
D03*
X318318Y238130D02*
D03*
X288495Y234137D02*
D03*
X82677Y307087D02*
D03*
X57087D02*
D03*
X31496D02*
D03*
X-25197Y274016D02*
D03*
X-31496D02*
D03*
X17323Y328740D02*
D03*
X43307Y329134D02*
D03*
X472047Y211417D02*
D03*
Y215354D02*
D03*
Y235433D02*
D03*
X372047Y332677D02*
D03*
Y335827D02*
D03*
X-2756Y114567D02*
D03*
X-36220Y239835D02*
D03*
Y233535D02*
D03*
Y246063D02*
D03*
Y252362D02*
D03*
X370866Y368898D02*
D03*
Y366142D02*
D03*
X471654Y150000D02*
D03*
Y157874D02*
D03*
X473622Y276378D02*
D03*
X471260Y305906D02*
D03*
X474016D02*
D03*
X473622Y339370D02*
D03*
Y342913D02*
D03*
X473228Y362992D02*
D03*
Y359055D02*
D03*
X36933Y133389D02*
D03*
X4724Y91732D02*
D03*
X-29134Y142126D02*
D03*
X-7874Y111417D02*
D03*
X-27953Y129134D02*
D03*
X-40233Y117247D02*
D03*
X-31478Y267735D02*
D03*
Y261436D02*
D03*
X-25591Y261417D02*
D03*
X-25197Y267717D02*
D03*
X-36220Y257874D02*
D03*
X-14567Y118898D02*
D03*
X-35827Y118504D02*
D03*
X473622Y284252D02*
D03*
X210630Y329528D02*
D03*
Y325984D02*
D03*
Y322441D02*
D03*
Y311024D02*
D03*
Y314567D02*
D03*
Y318504D02*
D03*
X290070Y361067D02*
D03*
X274285Y360892D02*
D03*
X319892Y365059D02*
D03*
X335100Y306738D02*
D03*
X473622Y268504D02*
D03*
X318810Y322933D02*
D03*
Y330807D02*
D03*
X274410Y304724D02*
D03*
X335050Y340256D02*
D03*
X319277Y356672D02*
D03*
X290070Y349649D02*
D03*
Y316185D02*
D03*
X290033Y304767D02*
D03*
X290070Y339019D02*
D03*
Y327602D02*
D03*
X274322Y339019D02*
D03*
X274285Y327660D02*
D03*
Y315909D02*
D03*
Y349564D02*
D03*
M02*
