G04*
G04 #@! TF.GenerationSoftware,Altium Limited,Altium Designer,25.5.2 (35)*
G04*
G04 Layer_Color=16711935*
%FSLAX25Y25*%
%MOIN*%
G70*
G04*
G04 #@! TF.SameCoordinates,D983EFA0-C6CE-4ABC-8C5B-CBB145181E12*
G04*
G04*
G04 #@! TF.FilePolarity,Negative*
G04*
G01*
G75*
%ADD45R,0.11417X0.02559*%
%ADD46C,0.07453*%
%ADD47R,0.07453X0.07453*%
%ADD48C,0.19540*%
%ADD49C,0.06706*%
%ADD50R,0.06706X0.06706*%
%ADD51C,0.00800*%
%ADD52C,0.02769*%
D45*
X-48976Y113386D02*
D03*
Y116535D02*
D03*
Y119685D02*
D03*
Y122835D02*
D03*
Y125984D02*
D03*
Y129134D02*
D03*
Y132283D02*
D03*
Y135433D02*
D03*
Y138583D02*
D03*
Y141732D02*
D03*
Y144882D02*
D03*
Y148031D02*
D03*
Y151181D02*
D03*
Y154331D02*
D03*
Y157480D02*
D03*
Y160630D02*
D03*
Y163779D02*
D03*
Y166929D02*
D03*
Y170079D02*
D03*
Y173228D02*
D03*
Y176378D02*
D03*
Y179528D02*
D03*
Y182677D02*
D03*
Y198425D02*
D03*
Y201575D02*
D03*
Y204725D02*
D03*
Y207874D02*
D03*
Y211024D02*
D03*
Y214173D02*
D03*
Y217323D02*
D03*
Y220472D02*
D03*
Y223622D02*
D03*
Y226772D02*
D03*
Y229921D02*
D03*
Y233071D02*
D03*
Y236220D02*
D03*
Y239370D02*
D03*
Y242520D02*
D03*
Y245669D02*
D03*
Y248819D02*
D03*
Y251968D02*
D03*
Y255118D02*
D03*
Y258268D02*
D03*
Y261417D02*
D03*
Y264567D02*
D03*
Y267716D02*
D03*
Y270866D02*
D03*
Y274016D02*
D03*
Y277166D02*
D03*
Y280315D02*
D03*
D46*
X512520Y48661D02*
D03*
X523701Y54114D02*
D03*
X512520Y59567D02*
D03*
X523701Y65020D02*
D03*
X512520Y70473D02*
D03*
X523701Y75925D02*
D03*
X512520Y81378D02*
D03*
X523701Y86831D02*
D03*
X512520Y175039D02*
D03*
X523701Y180492D02*
D03*
X512520Y185945D02*
D03*
X523701Y191398D02*
D03*
X512520Y196850D02*
D03*
X523701Y202303D02*
D03*
X512520Y207756D02*
D03*
X523701Y213209D02*
D03*
Y339587D02*
D03*
X512520Y334134D02*
D03*
X523701Y328681D02*
D03*
X512520Y323228D02*
D03*
X523701Y317776D02*
D03*
X512520Y312323D02*
D03*
X523701Y306870D02*
D03*
X512520Y301417D02*
D03*
D47*
Y92283D02*
D03*
Y218661D02*
D03*
Y345039D02*
D03*
D48*
X518110Y119665D02*
D03*
Y21280D02*
D03*
Y246043D02*
D03*
Y147658D02*
D03*
Y274035D02*
D03*
Y372421D02*
D03*
D49*
X479134Y44567D02*
D03*
Y54567D02*
D03*
Y64567D02*
D03*
Y74567D02*
D03*
Y84567D02*
D03*
Y94567D02*
D03*
Y104567D02*
D03*
X479528Y168976D02*
D03*
Y178976D02*
D03*
Y188976D02*
D03*
Y198976D02*
D03*
Y208976D02*
D03*
Y218976D02*
D03*
Y228976D02*
D03*
X481102Y355906D02*
D03*
Y345905D02*
D03*
Y335906D02*
D03*
Y325905D02*
D03*
Y315905D02*
D03*
Y305906D02*
D03*
Y295905D02*
D03*
D50*
X479134Y114567D02*
D03*
X479528Y238976D02*
D03*
X481102Y365905D02*
D03*
D51*
X-34646Y222835D02*
D03*
Y138583D02*
D03*
D52*
X246063Y35039D02*
D03*
X246457Y159843D02*
D03*
X164961Y47244D02*
D03*
X165354Y171260D02*
D03*
X163386Y298425D02*
D03*
X248819Y286614D02*
D03*
X-41339Y226772D02*
D03*
M02*
