G04*
G04 #@! TF.GenerationSoftware,Altium Limited,Altium Designer,25.5.2 (35)*
G04*
G04 Layer_Physical_Order=3*
G04 Layer_Color=16440176*
%FSLAX25Y25*%
%MOIN*%
G70*
G04*
G04 #@! TF.SameCoordinates,D983EFA0-C6CE-4ABC-8C5B-CBB145181E12*
G04*
G04*
G04 #@! TF.FilePolarity,Positive*
G04*
G01*
G75*
%ADD16C,0.01968*%
%ADD58C,0.01968*%
%ADD59C,0.02362*%
D16*
X449606Y35039D02*
X469291Y54724D01*
X246063Y35039D02*
X449606D01*
X450000Y159843D02*
X469291Y179134D01*
X246457Y159843D02*
X450000D01*
X163386Y48819D02*
X164961Y47244D01*
X163386Y48819D02*
Y169291D01*
X165354Y171260D01*
X163386Y173228D02*
X165354Y171260D01*
X163386Y173228D02*
Y298425D01*
X163381Y298430D02*
X163386Y298425D01*
X40153Y298430D02*
X163381D01*
X31496Y307087D02*
X40153Y298430D01*
X451968Y286614D02*
X471260Y305906D01*
X248819Y286614D02*
X451968D01*
X372047Y332677D02*
Y335827D01*
Y335933D01*
X370866Y337114D02*
X372047Y335933D01*
X370866Y337114D02*
Y366142D01*
X116160Y359467D02*
X190088D01*
X82677Y325984D02*
X116160Y359467D01*
X82677Y307087D02*
Y325984D01*
X177953Y347332D02*
X190088Y359467D01*
X57087Y307087D02*
Y324016D01*
X102756Y369685D02*
X190945D01*
X57087Y324016D02*
X102756Y369685D01*
X177953Y243307D02*
Y347332D01*
X471260Y305906D02*
X474016D01*
X328065Y55400D02*
X333131D01*
X288101Y64846D02*
X318618D01*
X328065Y55400D01*
X326535Y88819D02*
X332983D01*
X317044Y98311D02*
X326535Y88819D01*
X288101Y98311D02*
X317044D01*
X324768Y179809D02*
X333525D01*
X315322Y189256D02*
X324768Y179809D01*
X288495Y189256D02*
X315322D01*
X288495Y222720D02*
X315469D01*
X324961Y213228D02*
X333377D01*
X315469Y222720D02*
X324961Y213228D01*
X324867Y306738D02*
X335100D01*
X315420Y316185D02*
X324867Y306738D01*
X290070Y316185D02*
X315420D01*
X370866Y366142D02*
Y368898D01*
X469291Y179134D02*
X472047D01*
X370472Y206299D02*
Y209055D01*
X369291Y210343D02*
X370472Y209162D01*
X369291Y210343D02*
Y239370D01*
X370472Y209055D02*
Y209162D01*
X369291Y239370D02*
Y242126D01*
Y86327D02*
X370866Y84752D01*
X369291Y86327D02*
Y114961D01*
X370866Y84646D02*
Y84752D01*
X369291Y114961D02*
Y117717D01*
X197638Y127559D02*
Y251575D01*
X188976Y118898D02*
X197638Y127559D01*
Y251575D02*
Y362992D01*
X188976Y242913D02*
X197638Y251575D01*
X190945Y369685D02*
X197638Y362992D01*
X177953Y119291D02*
Y243307D01*
Y119291D02*
X188976Y108268D01*
X177953Y243307D02*
X188976Y232283D01*
X469291Y54724D02*
X472047D01*
X370866Y81890D02*
Y84646D01*
X332983Y88819D02*
X333081Y88917D01*
X333377Y213228D02*
X333475Y213327D01*
X4724Y91732D02*
Y121063D01*
X-197Y125984D02*
X4724Y121063D01*
X-197Y125984D02*
Y145473D01*
X-25591Y170866D02*
X-197Y145473D01*
Y125984D02*
X29528D01*
X36933Y133389D01*
X-25591Y170866D02*
Y261417D01*
X334951Y340158D02*
X335050Y340256D01*
X314567Y340158D02*
X334951D01*
X290070Y349649D02*
X305075D01*
X314567Y340158D01*
D58*
X246063Y35039D02*
D03*
X246457Y159843D02*
D03*
X164961Y47244D02*
D03*
X165354Y171260D02*
D03*
X163386Y298425D02*
D03*
X248819Y286614D02*
D03*
D59*
X372047Y332677D02*
D03*
Y335827D02*
D03*
X-197Y125984D02*
D03*
X469291Y179134D02*
D03*
X472047D02*
D03*
X370472Y206299D02*
D03*
Y209055D02*
D03*
X369291Y242126D02*
D03*
Y239370D02*
D03*
X190088Y359467D02*
D03*
X188976Y118898D02*
D03*
Y108268D02*
D03*
Y242913D02*
D03*
Y232283D02*
D03*
X190945Y369685D02*
D03*
X369291Y117717D02*
D03*
Y114961D02*
D03*
X472047Y54724D02*
D03*
X469291D02*
D03*
X370866Y81890D02*
D03*
Y84646D02*
D03*
X333131Y55400D02*
D03*
X288101Y98311D02*
D03*
X333081Y88917D02*
D03*
X288101Y64846D02*
D03*
X333525Y179809D02*
D03*
X288495Y189256D02*
D03*
X333475Y213327D02*
D03*
X288495Y222720D02*
D03*
X82677Y307087D02*
D03*
X57087D02*
D03*
X31496D02*
D03*
X370866Y368898D02*
D03*
Y366142D02*
D03*
X471260Y305906D02*
D03*
X474016D02*
D03*
X36933Y133389D02*
D03*
X4724Y91732D02*
D03*
X-25591Y261417D02*
D03*
X335100Y306738D02*
D03*
X335050Y340256D02*
D03*
X290070Y349649D02*
D03*
Y316185D02*
D03*
M02*
